<svg xmlns="http://www.w3.org/2000/svg" fill="none" viewBox="0 0 1920 724">
  <g fill="#385051" clip-path="url(#a)">
    <path d="M1456.91 524.91c-.17.67-.33 1.235-.42 1.619-.06-.813.1-1.294.42-1.619Zm-16.58-63.619c-11.42 4.332-27.65 5.567-38.98 1.261.85-2.135.98-4.731.64-6.931-15.29.643-52.46 25.952-36.52 41.638l.02.019c.51.65.96 1.31 1.17 2.018 1.35 4.404-7.11 3.64-4.71 9.759.33.819.67 1.281.94 1.781-.17.263-.28.546-.3.858l.66.029c.06.257.11.549.12.907.06 1.121-.83 2.476-.83 3.571-.01 2.863.63 4.355-.79 7.409l.57-.175c-1.66 1.976-3.03 4.075-3.5 6.48l-.75 1.488c-.05.718-.07 1.183.6 1.521l.26-.101.03.069c.29.455.55.818.8 1.147-.31.182-.55.809-.8 2.128-.46 2.642.42 4.839 1.2 7.166.84 2.544 2.5 4.943 4.41 3.568l.13.549.25-.237c.16.322.01.79-.11 1.287-.74.916-.41 2.21 1.8 4.013l.42-.796c.79.25 1.63.231 2.37.89l.57-.819c.42.598 1.36.901 1.73 1.336.49-1.381 1.95-1.368 3.29-1.202l.1-.241c.39-.019.76-.049 1.1-.075 1.06.481 2.4.615 3.34.004l.52-.208c.09 1.04 1.54 6.21 2.22 6.74 1.4 1.111 2.67-.992 3.81-.231 1.08.702.44 2.681.96 3.847l3.34-3.158c10.38 11-.65 20.509-1.47 32.526 3.27-3.455 7.35-7.647 10.68-10.991 8.22 8.433-6.41 21.133 4.28 29.784 3.66-8.219-.59-17.77 7.91-23.167-7.12 4.514 13.6 45.19 15.74 50.721 1.75 4.517 4.25 9.401 5.6 14.383-.5 4.114.22 8.235-.04 12.306-.12.345-.26.686-.42 1.027-.96 2.174-2.4 4.534-4.26 5.593-2.19 1.264-4.73 1.433-6.78 3.136-1.1.92-2.89 3.032-2.42 4.562-3.43 2.152-5.86 5.362-.96 8.251l-.44.507c3.01 5.414 9.32 4.238 14.78 4.179 25.94-.282 13.55-59.124 18.9-59.163 6.37-.059 12.39 25.201 12.41 29.513.06 11.67-4.71 8.924-8.26 16.886-8.62 19.313 8.96 13.538 26.75 12.638 9.83-.504-.59-48.45-1.42-55.365-2.15-17.734 2.84-26.037 22.59-22.046 4.95 1.001 9.15.52 14.3-.221 9.79-1.404 18.75-5.934 27.16-10.922 1.57-.556 3.07-1.199 4.46-1.96 3.24-1.8 5.69-3.805 7.68-6.219.86-.728 1.68-1.482 2.44-2.288 1.24-1.297 1.39-2.005.75-2.594.28-.523.55-1.056.81-1.618 6.24 4.26 6.39 13.265 9.42 19.625.98 2.073 2.36 3.029 3.64 4.777 1.34 1.83 1.29 3.09 1.49 5.355.39 4.495 1.32 8.183 2.39 12.525 2.53 10.226 6.14 20.141 3.51 30.995-1.13 4.689-2.66 9.658-5.96 13.402-3.36 3.821-8.41 2.203-11.87 5.388-9.53-5.768-15.99 14.016-2.91 11.656 9.21-1.663 17.49 4.043 26.1-2.235 4.18-3.049 6.36-4.521 7.75-9.519 1.28-4.559 1.91-9.391 2.16-14.233.28-5.57 1.88-8.108 4.69-12.586 3.01-4.81-1.08-7.553-1.41-12.596.25-1.297.04-3.048-.13-4.693-.04-4.933.26-9.836.87-14.682.65-3.883 1.76-7.857 2.89-11.708 2.04 3.584 5.04 6.359 6.88 10.074 1.24 2.505 2.3 4.982 3.58 7.451 2.52 4.852 6.27 9.463 9.08 14.068 1.25 2.051 3.01 4.02 4.04 6.201.97 2.05 1.03 4.114 1.93 6.255 1.03 2.454 1.55 3.071 1.25 5.957-.24 2.353-.35 4.666-.88 6.847-.94 3.955-2.07 10.711-5.37 13.194-4.17 3.132-10.15-1.235-13.33 1.787-1.21 1.147-2.06 4.169-1.57 5.879.71 2.453 3.18 2.421 5.67 2.385 4.87-.068 9.64.494 14.38.536 2.25.01 4.69-.205 6.77-.851 3.44-1.063 2.13-2.389 2.97-5.041.72-2.239 2.39-4.107 2.94-6.561.6-2.638.77-5.186 1.85-7.747 1.87-4.387 4.44-8.465 5.36-13.129.46-2.343.73-4.517 1.42-6.837.71-2.362.92-4.579.1-6.87-1.63-4.523-5.77-6.977-7.77-11.019-1.92-3.858-1.36-9.418-1.8-13.682-.5-4.858-1.03-9.729-1.77-14.613-1.52-10.078-4.6-20.688-5.69-30.677-.44-4.01.14-8.069-.16-12.037 1.44 2.648 2.55 5.225 2.86 6.057 3.67 9.811 2.66 20.701 4.12 30.927.77 5.58.59 11.114 2.82 16.45 2.34 5.622 6.64 9.288 9.69 14.309 5.26 8.68 13.7 16.885 23.92 19.68 5.31 1.443 10.75 3.246 16.1 4.52 4.65 1.118 9.58 3.513 14.51 3.23-3.61-.832-7-3.188-10.63-4.202-3.64-1.023-7.59-2.105-11.33-3.275-7.82-2.431-14.47-6.574-19.98-12.58-7.42-8.098-13.09-14.744-15.8-25.614-2.93-11.773-3.56-24.174-4.79-36.296-1.02-10.187-1.3-22.052-7.82-30.303-3.48-4.41-6.46-7.026-11.02-10.21-1.86-1.31-11.36-8.859-12.75-6.558v.296c-1.25-.462-2.61-.771-4.02-1.021-7.79-4.952-16.24-6.129-25.79-7.026-5.65-.529-11.06-1.348-16.69-.227-6.78 1.342-12.98 4.039-19.98 4.985-15.67 2.132-32.19 4.475-47.96 3.048-4.11-.374-12.28-.588-15.71-2.762-.8-.507-8.26-8.326-6.81-8.186 2.24.218 5.07-.413 7.35-.465 1.6-12.128-13.79-10.441-20.37-16.957 1.9-1.53 4.57-6.333 6.38-7.597-14.96 1.186-22.12-10.412-7.88-18.751-2.64-.481-6.41-.803-9.04-.582-.02-.094-.17-3.786.75-3.015-6.31 3.139-14.27 4.91-21.05 1.446-.38-7.231 7.56-9.129 7.56-9.129M-3.353 626.752l-.134.014.322.411-.188-.425Zm-21.623 36.557c.155-1.462.925-3.191 1.377-4.694.61-2.03.1-3.369 2.27-4.755-3.29-7.494 8.431-14.978 10.418-21.699 1.616-5.46 2.476-9.846 5.106-15.162 6.15-12.431 16.31-22.11 27.881-29.467 5.699-3.625 11.801-6.713 17.53-10.178 4.1-2.475 14.91-6.2 15.479-11.63.633-.013 1.846-.219 2.434-.191.048.5.127 1.129.271 1.64a4.997 4.997 0 0 0 2.25-1.14s.962.694.496.811c.77-1.065 1.867-1.565 2.634-2.366-.507.935-.754 2.16-.962 3.191 3.205-.185 3.188-3.869 4.071-4.156l.798.38-.414-1.349c.657.359 1.438.455 2.078.869-.301-.499-.493-1.766-.773-2.273.496.445 1.599.76 2.099 1.178.078-.555.39-.979.366-1.657.336.633 1.158 1.41 1.438 1.89-.14-.849.024-1.815-.16-2.691.736.989 1.496 2.092 2.314 2.876-.044-1.11 0-2.304-.222-3.414.89.911 1.702 2.037 2.322 3.15.376-.952.462-2.277.26-3.437.452.859.828 2.304 1.352 3.331.216-1.013.692-1.969.744-3.057.061.767.458 1.53.575 2.317.301-.38 1.243-1.01 1.54-1.479.285.288-.06.61.484.678.596-.746 1.486-1.249 1.897-2.222-.034.682.267 1.51.226 2.243.363-.257.61-.449 1.013-.63-.181.62-.109 1.106-.133 1.701.548-.219 1.493-.167 2.027-.41-.555.79-.5 1.763-.798 2.465 1.993-.637 4.23-.582 5.496-2.404-.222.438-.356 1.195-.582 1.647.487-.089 1.148.038 1.63-.021-.273.528-.438 1.298-.756 1.736 1.082-.794 2.17-1.944 3.27-2.67-.257.524-.435.962-.784 1.482.407-.356 1.096-.75 1.49-1.178-.278.716-.281 1.647-.771 2.465.73-.54 1.866-.866 2.647-1.458-.274.664-.291 1.63-.791 2.386 1.13-.568 2.226-1.352 3.305-1.958-.257 1.123-.124 1.849-.993 2.934 1.208-.664 2.39-1.664 3.54-2.417-.325.616-.558 1.657-1.143 2.407 2.383-1.192 4.859-3.054 7.527-3.249-.182 1.503-1.49 2.643-2.103 4.009 1.404-1.021 3.027-2.161 4.691-2.801-.421.62-.832 1.828-1.503 2.503 1.777-.353 3.678-.62 5.565-.675l.072.956c-.682.219-1.285.694-1.901.92 2.336.394 4.945.165 7.031 1.5-.843.178-1.648.715-2.648.715 1.172 0 3.949 1.538 4.956 2.027-1.178.469-2.422.76-3.675.856 2.144-.164 6.616 5.296 9.095 6.108 2.593.845 7.39-2.397 8.479-.582.709 1.188-1.564 2.708-.448 4.269.794 1.112 2.767 1.058 3.945 1.034 2.034-.045 3.962-.846 5.633-2.054 1.253-1.493 2.404-3.04 3.534-4.167l.161.36c3.52 1.718 2.798 6.967 1.736 10.055-.49 1.424-1.236 3.615-2.027 4.888-.709 1.154-3.233 2.315-3.585 3.451-.466 1.489 1.202 3.27 1.821 4.766.38.945.699 1.907.959 2.886.692 1.095 1.425 2.102 2.236 2.975l-.239.137.291-.058-1.295 1.513.007.038c.74.623.801 1.342.384 2.006.096.493.195.989.311 1.482.641 2.879 3.343 6.652 4.63 9.935 2.318 1.308 1.798 3.068.346 4.584-2.294 4.732-7.876 5.444-12.133 4.324-7.075-1.862-11.174-8.853-17.557-11.962.38.309.716.661.99 1.065l-1.113-1.123a14.566 14.566 0 0 0-2.983-1.065c-2.774-.66-5.277-.359-7.989-1.763-6.418-3.29-11.277-4.077-14.605 3.229-1.87 4.111-2.531 11.154.188 15.084 3.39 4.909 13.328 10.298 18.273 13.718 4.869 3.358 24.361 18.59 19.694 26.036-3.089 4.93-6.832-.308-8.863-3.218-3.123-4.447-4.903-8.176-9.866-10.98-6.489-3.666-14.482-5.049-20.83-8.976-3.432-2.116-4.1-5.748-8.63-5.152-7 .92-4.15 9.151-4.476 13.875-.298 4.304-1.164 8.97-1.48 13.273-.31 4.28-.455 8.891 2.124 12.363 1.962 2.636 8.924 5.142 6.65 9.27-1.623 2.965-8.03 1.972-10.506.778-4.465-2.14-4.62-6.817-4.962-11.254-.97-12.403-3.616-24.303-3.366-36.152.123-5.7-.76-12.376-7.294-13.982-3.4-.838-4.301 1.264-7.29 2.006-5.432 1.349-30.718-10.647-25.53 1.397 1.572 3.646 1.29 8.593.61 12.404-1.066 5.987-3.905 11.554-4.593 17.491-.856 7.381 2.247 12.804 6.418 18.716a1.068 1.068 0 0 1 1.51-1c2.948 1.264 4.934 3.732 7.136 5.947 1.524.678 3.048 1.342 4.562 2.054.667.308.715 1.003.417 1.493.487.65.791 1.362 1.08 2.239.239.702-.223 1.304-.915 1.427l-.38.055c-.877 3.492-10.27 2.629-12.698 1.613-4.513-1.894-6.164-5.594-7.897-9.648-1.777-4.129-4.332-6.888-7.674-9.997-.993-.934-4.407-2.858-4.784-3.995-.565-1.715 1.383-4.177 1.959-5.892 1.298-3.889 1.294-7.98.774-12.122-.77-.011-1.617.308-2.5.845-1.072.938-2.291 1.876-3.319 2.725-1.184 1.188-2.359 2.523-3.434 3.8-1.473 1.962-2.894 3.879-4.801 5.41-3.47 3.396-7.075 6.675-7.894 11.725-.383 2.431-.965 6.176-.366 8.604.935 3.796 3.003 3.002 5.74 4.813 6.694 4.43-5.757 6.446-9.284 4.748-4.64-2.232-2.884-11.708-3.678-16.124-.856-4.742-5.39-12.219-1.579-15.488 7.209-6.173 15.479-12.633 16.729-22.209-.309-3.17-1.71-5.929-2.168-9.038.174-.661.28.003.736-.021l.774.884c-1.075-3.345-3.137-5.985-4.955-8.83 1.048 4.578-1.072 10.713-2.86 14.845-2.18 5.026-3.927 10.024-7.283 14.221-2.463 3.081-7.473 8.884-11.849 8.367-.356-2.184 1.116-3.779 2.39-5.402a20.708 20.708 0 0 1-4.201.548m226.487-20.543-.082-.007.146.306-.064-.299ZM182.994 663.2c.295-.92 1.014-1.921 1.501-2.82.654-1.216.516-2.147 2.074-2.733-1.05-5.266 7.313-8.436 9.472-12.464 1.757-3.279 2.892-5.972 5.261-9.011 5.545-7.115 13.229-11.908 21.477-15.016 4.062-1.528 8.306-2.66 12.371-4.087 2.899-1.015 10.181-1.896 11.28-5.302.398.084 1.184.117 1.551.215a6.62 6.62 0 0 0-.054 1.095 3.178 3.178 0 0 0 1.562-.422l.203.586c.629-.571 1.383-.739 1.974-1.146-.445.527-.772 1.284-1.039 1.91 2.031.328 2.522-2.03 3.116-2.096l.445.353-.071-.921c.362.321.832.492 1.181.845-.121-.361-.068-1.198-.175-1.565.253.356.897.713 1.156 1.051.125-.345.377-.571.452-1.015.125.455.537 1.066.644 1.409.032-.561.263-1.154.267-1.74.327.735.651 1.543 1.06 2.162.124-.717.313-1.474.32-2.22a9.926 9.926 0 0 1 1.031 2.347c.367-.564.598-1.397.63-2.169.167.615.206 1.59.395 2.322.27-.619.697-1.168.878-1.856-.064.502.082 1.041.046 1.565l1.167-.735c.139.229-.124.385.21.502.473-.393 1.099-.59 1.494-1.157-.117.429-.039 1-.167 1.466l.722-.262c-.196.371-.217.692-.313 1.074.366-.069.953.102 1.327.018-.459.433-.555 1.063-.836 1.47 1.334-.131 2.724.211 3.767-.782l-.587.982 1.024.211-.708 1.005c.786-.357 1.626-.939 2.412-1.256l-.697.841 1.095-.546c-.27.419-.402 1.015-.818 1.47.53-.24 1.288-.294 1.853-.56-.256.386-.401 1.001-.814 1.416.782-.208 1.576-.557 2.333-.794-.313.681-.33 1.165-1.021 1.74.847-.255 1.726-.735 2.547-1.056-.288.346-.576.983-1.042 1.383 1.654-.429 3.457-1.281 5.158-1.037-.32.943-1.295 1.489-1.864 2.278 1.017-.455 2.195-.96 3.322-1.139-.352.339-.772 1.052-1.284 1.394 1.163.022 2.387.113 3.575.342l-.082.622c-.455.048-.896.266-1.313.328 1.405.575 3.07.79 4.198 1.936-.552-.004-1.131.229-1.757.091.732.164 2.265 1.536 2.831 1.987a7.825 7.825 0 0 1-2.419.04c1.363.193 3.422 4.316 4.866 5.182 1.512.903 4.959-.509 5.389.805.281.862-1.348 1.517-.861 2.678.349.823 1.59 1.066 2.33 1.212 1.284.251 2.604.007 3.81-.535.989-.782 1.921-1.612 2.781-2.176l.054.247c1.97 1.594.807 4.862-.278 6.693-.501.844-1.27 2.143-1.935 2.849-.604.644-2.344 1.034-2.717 1.714-.495.892.309 2.268.494 3.312a16.1 16.1 0 0 1 .206 1.987c.285.793.605 1.543.993 2.213l-.164.054.185.004-1.014.79v.029c.377.498.321.968-.035 1.335-.007.335-.011.663-.007.997.014 1.933 1.191 4.728 1.554 7.013 1.27 1.158.708 2.217-.409 2.984-2.081 2.715-5.673 2.395-8.192 1.089-4.176-2.18-5.794-7.232-9.373-10.114l.477.819-.544-.877a9.538 9.538 0 0 0-1.722-1.095c-1.65-.808-3.258-.968-4.766-2.242-3.571-2.999-6.513-4.185-9.59.036-1.732 2.377-3.102 6.802-1.935 9.699 1.459 3.621 6.947 8.461 9.583 11.34 2.593 2.831 12.737 15.306 8.796 19.433-2.603 2.73-4.24-1.15-5.115-3.293-1.351-3.294-1.96-5.925-4.688-8.418-3.568-3.253-8.387-5.248-11.831-8.654-1.86-1.834-1.782-4.258-4.702-4.502-4.51-.382-3.845 5.288-4.692 8.269-.772 2.722-1.952 5.593-2.731 8.308-.779 2.7-1.498 5.637-.356 8.221.875 1.962 4.891 4.542 2.906 6.871-1.419 1.674-5.296.145-6.687-.965-2.504-1.994-1.967-5.011-1.576-7.904 1.078-8.086 1.042-16.085 2.81-23.648.847-3.639 1.202-8.042-2.668-9.982-2.017-1.008-2.87.211-4.844.273-3.586.109-17.796-11.1-16.185-2.657.487 2.555-.359 5.692-1.305 8.036-1.484 3.693-4.02 6.867-5.254 10.575-1.54 4.615-.334 8.523 1.473 12.894.085-.466.633-.761 1.085-.429 1.671 1.219 2.578 3.082 3.66 4.803.864.648 1.725 1.285 2.575 1.955.381.291.313.742.064 1.015.213.484.313.979.37 1.583.053.484-.32.804-.768.79l-.249-.022c-1.021 2.118-6.791.266-8.171-.732-2.572-1.841-3.102-4.439-3.639-7.282-.547-2.893-1.771-5.018-3.446-7.478-.495-.735-2.373-2.446-2.451-3.225-.121-1.179 1.433-2.485 2.027-3.508 1.345-2.311 1.9-4.931 2.135-7.66-.481-.117-1.057-.03-1.683.189-.8.455-1.69.888-2.444 1.288-.91.597-1.828 1.292-2.671 1.958-1.188 1.052-2.348 2.085-3.746 2.799-2.635 1.695-5.339 3.3-6.541 6.419-.573 1.507-1.444 3.829-1.401 5.47.071 2.562 1.479 2.344 2.945 3.883 3.589 3.774-4.486 3.33-6.463 1.754-2.604-2.074-.214-7.908-.111-10.852.107-3.159-1.714-8.585 1.114-10.154 5.357-2.951 11.414-5.942 13.502-11.907.242-2.078-.263-4.04-.124-6.096.199-.397.174.044.459.087l.37.674c-.221-2.293-1.153-4.273-1.907-6.347.036 3.079-2.127 6.718-3.81 9.116-2.048 2.922-3.823 5.881-6.498 8.105-1.964 1.634-5.891 4.658-8.558 3.719.071-1.452 1.216-2.271 2.23-3.133a13.315 13.315 0 0 1-2.707-.23"/>
    <path d="M1042.05 670.221c-.5 1.575-.53 2.994-.66 4.527.27-1.51.62-2.962.66-4.527ZM-1.41 685.051c3.35 1.518 5.56 6.446 9.88 5.402 1.095-4.055.235-8.205 1.382-12.252.44 1.801 1.633 4.033 1.955 6.471 3.068-3.971 5.002-10.774 7.976-15.564.315 5.477-1.082 10.933-.352 16.296 2.132-4.579 4.667-11.152 7.813-14.896-.32 6.97-.503 14.292-.138 21.424 2.597-2.055 3.87-6.723 5.362-9.934.428 6.545.034 13.295.52 19.806 4.888-10.827 4.007-27.228 6.342-39.479 3.498 9.71-1.658 25.034 2.805 33.579 1.123-5.361 1.197-11.321 2.983-16.3.495 4.243.914 9.414 2.057 12.953.414-3.5 1.265-7.031 3.103-9.106.161 2.532.891 4.62.803 7.172.41-1.848 1.303-3.587 1.743-5.323a89.38 89.38 0 0 1 .2 8.607c1.883-7.194 3.109-14.999 5.327-21.93.94 6.529-1.97 12.737-1.532 19.402 1.053-4.616 3.238-8.908 5.6-12.783.168 3.793-.75 7.57-1.06 11.107 1.37-2.356 2.729-5.211 4.127-7.226-.06 2.91.064 6.062.868 8.778.573-3.099 1.377-6.659 2.94-8.826.41 2.829 1.033 5.95 1.989 8.123.305-6.113.623-12.617.513-18.724 1.676 4.157 2.66 9.874 3.382 14.347-.215-3.513.18-6.914.503-10.314.11 4.168.848 9.149 2.104 12.724.062-2.989.678-6.026 1.794-8.591.177 3.743.739 7.377.865 11.104.587-2.3 1.74-4.616 2.342-7.004-.032 2.04.778 4.177.796 6.303 2.114-1.733 3.956-4.844 6.07-6.568-.116 1.67.44 3.848.294 5.472 2.65-4.744 3.832-10.676 6.689-15.281-.56 2.583-.31 5.172-.42 7.737 1.578-5.338 2.271-11.409 3.483-16.988.005 6.62-.499 13.917.859 20.271.596-4.286 1.09-9.631 2.866-13.049.867 5.686 1.649 11.573 2.88 17.067.931-3.403 1.425-7.512 1.919-11.268 1.002 4.232 2.665 10.981 4.997 14.714.03-2.959.457-6.086 1.438-8.786.86 3.447 1.776 7.414 2.537 11.037-.353-4.877.343-9.488 1.753-13.555-.334 4.224.187 8.936 1.23 12.731 1.229-3.528 1.985-7.611 3.06-11.191.42 3.228.523 6.755 1.709 9.395 1.789-5.007 3.342-10.957 4.731-16.043-.003 3.409.057 6.816.079 10.228.677-4.728 1.446-10.134 3.044-14.407-.146 2.914-.283 8.575 1.457 10.892 1.461 1.933 3.514.984 4.565 2.136.671.736 2.545.446 3.571 1.582 1.207 1.337.726 5.775 2.52 7.691 1.144-4.325 1.723-8.952 2.599-13.415-.252 3.815.481 7.813 2.003 10.981 2.635-5.634 2.56-21.537-1.048-26.694 4.853 7.521 7.621 16.108 7.532 25.872.332-2.039 1.747-4.063 2.31-5.68.576 1.103 1.964 1.951 2.597 3.279.546-.61 1.871-1.538 2.381-2.331.133.673-.061 1.732.25 2.298 1.009-.828 3.162-1.097 4.228-2.379.288.662.048 1.435.21 2.14.892-.252 3.243-1.327 3.562-1.497.234-2.229 1.004-4.178.83-6.49.055.736.592 3.372.685 4.827 1.197-2.428 1.663-5.751 2.332-8.83.002 2.771.507 5.499 1.478 7.954a9.408 9.408 0 0 0 1.586-2.375c.524.293-.149 1.725.268 2.177.784-1.258 2.068-2.078 2.914-3.025-.01 1.22.33 2.73.291 3.95.796-.634 2.162-1.246 2.91-2.338.559.443-.305 1.589.733 1.689.838-1.184 2.87-2.154 3.679-3.396-.035 1.219.317 2.738.275 3.97.727-.791 2.213-1.401 2.925-2.359.104.615-.06 1.807.246 2.298 2.164-2.041 4.394-2.448 5.128 1.634.742-1.961 1.313-3.18 1.07-6.331.337 2.63 1.03 3.824 1.854 6.09-.043-1.781.624-4.007.695-5.29.43 1.701 1.865 3.264 2.452 4.605.1-1.287.55-2.574.747-3.821.12 1.563.599 2.298.805 3.785.625-1.002 2.445-2.245 3.008-3.163.092 1.068.723 2.542.761 3.956.824-1.046 2.209-1.476 3.077-2.972.17.647.098 2.2.099 2.899 1.238.101 1.991-.579 2.943-.661.066.939.06 2.096.296 2.979.823-2.378 2.051-4.669 2.988-6.953-.26 3.141.457 4.842 1.172 7.088.851-3.477 1.035-7.079 1.958-10.482-.221 2.625.109 5.404.217 7.966.484-1.516 1.578-6.228 1.634-6.707.374 2.263 1.29 4.19 1.877 5.835.119-1.716.54-3.04.699-4.603.257 1.566 1.51 3.547 1.83 5.17.431-1.149 1.557-2.333 2.033-3.583.217 1.395 1.125 3.082 1.307 3.953.358-1.265 1.999-3.849 2.346-5.048.115 1.489.733 2.633.933 3.996.452-.813 2.345-2.218 2.886-3.199.152 1.142.632 2.227.789 3.132.63-.924 2.362-1.894 3.035-2.976.095.939.171 1.978.262 2.955 1.137-1.575 2.45-3.763 3.013-6.351-.196 2.275.142 4.622.025 6.912 1.998-2.984 3.063-6.955 4.891-9.62a64.07 64.07 0 0 0-.964 8.139c1.61-2.093 2.366-5.864 3.624-8.801a86.254 86.254 0 0 0 .218 8.753c.407-1.782 1.169-4.684 1.184-7.148 1.339 3.816 3.239 7.629 5.538 10.342.405-1.886.927-3.761.82-5.961.461 3.253 2.444 5.995 4.329 7.59-.079-2.026.255-4.24 0-6.313.48 2.458 1.804 3.789 2.66 5.634.348-1.119 1.538-3.198 1.691-4.216.012 1.261.251 2.727.284 4.008 1.1-1.599 2.837-3.152 3.694-5.531-.379 1.99-.165 4.455-.491 6.319 1.954-2.538 3.157-6.823 4.218-10.485-.48 2.565-.466 5.311-.425 7.928 2.407-2.265 4.14-6.098 5.507-9.665a31.984 31.984 0 0 0-1.086 7.957c2.352-2.276 3.413-5.981 5.395-8.865-.415 2.686-1.34 5.914-1.635 8.656a69.722 69.722 0 0 0 4.162-7.01c.189 3.068.175 6.293.203 9.435.609-2.525 2.045-4.47 2.992-6.342-.271 2.637.651 5.102 1.02 7.244.447-.184 2.674-1.532 2.834-1.671 1.061-4 .376-8.123 1.288-12.084-.268 5.172 1.907 9.901 3.824 13.734.368-3.537.492-7.238 1.313-10.44-.393 4.124.504 8.283 1.526 12.044.651-2.143 1.366-5.573 2.331-7.957.229 3.368.774 6.619 2.157 9.328.596-2.222 1.84-5.3 2.141-7.139-.063 2.885.067 6.245.885 8.757 1.053-3.63 2.286-6.912 3.718-10.226-.233 2.055.212 4.263.158 6.27 1.022-1.478 2.795-3.127 3.506-4.872-.138.963-.156 2.187-.36 3.134 1.833-2.162 3.431-5.191 4.915-7.997-.054 1.265.163 2.64.111 3.827 1.636-1.652 2.772-4.38 3.644-7.191-.388 1.936.208 4.333.141 6.257 1.319-.741 2.833-.148 4.223-1.498.101 1.714 1.237 3.347 1.422 4.776.523-.102 2.021-1.115 2.441-1.516.124.573-.126 1.949.229 2.336 1.234-1.822 2.353-5.207 3.479-7.368.05 2.342 1.006 4.174 1.303 6.292.794-2.731 1.402-5.706 1.985-8.63-.006 2.809.803 4.567 1.522 7.113.652-1.764 2.216-4.185 2.947-6.3-.159 2.553.198 5.145.039 7.694.854-1.888 2.34-3.879 3.045-5.461-.44 2.436-.3 4.594-.485 7.126.579-1.996 1.81-4.026 2.37-5.514-.278 1.352-.135 3.443-.334 4.848 1.862-1.842 3.844-4.826 6.09-5.665-.532 1.392-.652 3.445-1.052 4.748.886-1.03 2.644-1.951 3.544-3.169.094.485.179.967.268 1.457 3.191-1.514 4.11-5.537 6.196-8.804-.018.57-.464 1.478-.569 2.108l.557-.415c-.451 1.837-.332 4.365-.492 6.194 1.056-1.091 2.53-1.713 3.586-3.827-.912 2.258-.661 4.073-.974 6.304.723-.147 1.516-.931 2.173-1.334l.385 1.78c1.073-2.057 2.529-2.445 3.974-2.106.061-.779.126-1.562.199-2.333 3.354 1.519 5.56 6.447 9.876 5.402 1.102-4.054.242-8.205 1.39-12.251.431 1.8 1.629 4.032 1.955 6.471 3.064-3.971 4.997-10.774 7.976-15.564.31 5.476-1.082 10.933-.353 16.296 2.124-4.579 4.664-11.153 7.81-14.896-.325 6.97-.503 14.292-.138 21.424 2.601-2.055 3.87-6.724 5.365-9.934.428 6.544.026 13.295.521 19.805 4.892-10.827 4.003-27.228 6.342-39.479 3.498 9.71-1.658 25.035 2.804 33.58 1.127-5.362 1.198-11.322 2.979-16.3.495 4.242.914 9.414 2.058 12.953.418-3.501 1.268-7.032 3.107-9.107.153 2.533.883 4.621.802 7.173.406-1.849 1.304-3.587 1.74-5.324.202 2.786.272 5.752.204 8.607 1.879-7.193 3.108-14.998 5.327-21.93.936 6.53-1.967 12.737-1.529 19.402 1.045-4.615 3.235-8.908 5.592-12.783.173 3.793-.749 7.571-1.059 11.108 1.374-2.356 2.736-5.211 4.126-7.226-.059 2.909.064 6.062.873 8.777.564-3.099 1.373-6.658 2.94-8.825.402 2.828 1.032 5.95 1.984 8.122.302-6.112.628-12.616.509-18.723 1.684 4.156 2.664 9.874 3.386 14.347-.206-3.514.18-6.915.512-10.314.106 4.168.843 9.148 2.096 12.723.058-2.988.677-6.025 1.794-8.59.18 3.743.734 7.377.873 11.103.578-2.3 1.731-4.615 2.334-7.003-.024 2.039.773 4.176.791 6.302 2.118-1.732 3.961-4.843 6.079-6.568-.121 1.671.439 3.848.293 5.473 2.655-4.744 3.829-10.676 6.689-15.281-.563 2.583-.313 5.172-.423 7.737 1.577-5.338 2.275-11.41 3.487-16.989 0 6.621-.499 13.917.855 20.271.595-4.285 1.09-9.63 2.866-13.048.867 5.686 1.649 11.572 2.88 17.066.935-3.403 1.424-7.512 1.914-11.267 1.011 4.231 2.67 10.981 5.006 14.713.029-2.959.456-6.085 1.438-8.786a338.834 338.834 0 0 1 2.537 11.037c-.349-4.877.334-9.487 1.752-13.554-.338 4.224.192 8.936 1.231 12.73 1.221-3.527 1.989-7.611 3.052-11.19.423 3.227.53 6.755 1.713 9.395 1.793-5.008 3.346-10.957 4.735-16.043-.007 3.408.056 6.815.079 10.227.673-4.727 1.45-10.134 3.036-14.407-.142 2.915-.275 8.576 1.465 10.893 1.457 1.933 3.509.983 4.565 2.135.667.736 2.545.446 3.566 1.582 1.212 1.337.731 5.775 2.524 7.692 1.141-4.326 1.719-8.952 2.591-13.416-.247 3.815.49 7.813 2.012 10.982 2.635-5.635 2.551-21.538-1.048-26.694 4.848 7.521 7.621 16.108 7.528 25.871.336-2.039 1.751-4.062 2.309-5.68.584 1.104 1.961 1.952 2.602 3.28.542-.61 1.87-1.539 2.381-2.331.133.672-.066 1.731.249 2.298 1.001-.829 3.159-1.097 4.225-2.38.287.662.051 1.435.218 2.141.884-.253 3.239-1.327 3.549-1.497.243-2.23 1.009-4.179.838-6.49.055.736.592 3.371.677 4.827 1.202-2.429 1.672-5.751 2.337-8.831.001 2.772.515 5.499 1.478 7.955a9.407 9.407 0 0 0 1.589-2.376c.524.293-.144 1.725.269 2.177.784-1.258 2.068-2.077 2.91-3.024-.006 1.219.334 2.73.291 3.95.799-.635 2.165-1.247 2.905-2.338.572.442-.305 1.589.737 1.688.843-1.184 2.871-2.154 3.683-3.396-.038 1.22.318 2.738.271 3.971.727-.792 2.214-1.401 2.926-2.359.112.614-.06 1.807.246 2.298 2.164-2.041 4.394-2.448 5.132 1.633.742-1.961 1.317-3.179 1.069-6.33.329 2.63 1.031 3.823 1.851 6.089-.039-1.78.628-4.007.695-5.289.433 1.701 1.868 3.264 2.456 4.605.1-1.287.546-2.575.742-3.821.124 1.563.604 2.297.81 3.784.624-1.002 2.436-2.244 3.007-3.163.093 1.069.723 2.542.762 3.957.819-1.047 2.209-1.476 3.076-2.973.167.647.099 2.2.104 2.899 1.225.101 1.982-.578 2.939-.661.066.94.055 2.097.291 2.98.824-2.378 2.06-4.67 2.989-6.954-.264 3.141.461 4.842 1.167 7.089.86-3.477 1.044-7.079 1.966-10.482-.22 2.624.11 5.404.213 7.966.485-1.517 1.583-6.229 1.639-6.708.37 2.263 1.285 4.191 1.872 5.836.116-1.716.54-3.041.704-4.603.253 1.565 1.506 3.547 1.83 5.17.431-1.15 1.553-2.333 2.032-3.584.209 1.396 1.117 3.082 1.299 3.954.363-1.265 2.004-3.85 2.351-5.048.118 1.488.728 2.633.941 3.995.444-.813 2.345-2.218 2.878-3.199.152 1.143.636 2.227.789 3.132.625-.923 2.361-1.894 3.039-2.976.099.939.166 1.979.258 2.956 1.137-1.575 2.458-3.764 3.013-6.351-.197 2.275.149 4.621.028 6.911 1.994-2.983 3.064-6.954 4.896-9.62a63.396 63.396 0 0 0-.968 8.139c1.606-2.092 2.362-5.863 3.619-8.8a87.712 87.712 0 0 0 .223 8.752c.398-1.782 1.169-4.684 1.18-7.147 1.342 3.815 3.239 7.628 5.538 10.342.405-1.891.935-3.762.815-5.97.47 3.261 2.449 5.999 4.338 7.598-.088-2.025.251-4.239-.005-6.312.485 2.457 1.805 3.789 2.657 5.634.352-1.12 1.541-3.199 1.695-4.216.012 1.261.255 2.727.288 4.008 1.095-1.599 2.828-3.153 3.689-5.531-.379 1.989-.169 4.454-.491 6.319 1.958-2.538 3.157-6.823 4.214-10.486-.475 2.565-.461 5.312-.42 7.929 2.407-2.265 4.14-6.099 5.51-9.666a31.494 31.494 0 0 0-1.086 7.958c2.349-2.277 3.414-5.981 5.392-8.865-.412 2.685-1.341 5.913-1.635 8.655a69.827 69.827 0 0 0 4.166-7.01c.193 3.069.171 6.294.198 9.435.609-2.525 2.054-4.47 2.992-6.342-.27 2.638.66 5.102 1.02 7.245.447-.185 2.678-1.532 2.835-1.671.123-.472.221-.939.298-1.415.082-1.112.181-2.216.287-3.312l.059.025c.127-2.474.087-4.958.644-7.382-.168 3.21.612 6.259 1.687 9.025.796.706 1.563 1.474 2.375 2.147.228-2.725.448-5.441 1.075-7.879-.29 3.079.136 6.182.797 9.116.44.211.917.363 1.413.431.472-1.82 1.009-3.866 1.655-5.459.092 1.355.254 2.676.478 3.959.617-3.603.063-7.253 1.079-10.832.439 1.8 1.633 4.032 1.959 6.471 3.06-3.971 4.997-10.774 7.976-15.564.31 5.476-1.082 10.933-.352 16.296 2.123-4.579 4.663-11.153 7.809-14.896-.21 4.497-.339 9.142-.318 13.778.913-1.522 1.639-3.396 2.235-5.322-.379 1.936.213 4.334.146 6.257.636-.366 1.323-.404 2.021-.512.383-.95.754-1.882 1.139-2.711.052.782.095 1.572.122 2.358l.932-.632c.11 1.713 1.242 3.347 1.426 4.776.328-.063 1.018-.475 1.6-.873 1.121-8.479 1.33-17.694 2.783-25.303 2.161 6.003 1.019 14.152.887 21.515.291-.682.591-1.326.888-1.888.038 2.343 1.002 4.174 1.299 6.293.794-2.732 1.397-5.706 1.981-8.631 0 .695.046 1.327.136 1.921.175-.66.371-1.303.596-1.93.257 2.215.501 4.675.83 7.026.673-1.76 2.188-4.122 2.911-6.203-.112 1.72.014 3.457.061 5.192.381-.82.825-1.563 1.367-2.169.033.628.103 1.223.194 1.808.563-.918 1.105-1.811 1.453-2.598-.4 2.244-.321 4.261-.454 6.543.449-1.333 1.02-2.614 1.341-3.904l.051 1.065c.369-.758.726-1.478.948-2.093-.279 1.352-.132 3.443-.331 4.848l.908-.964c1.222-5.475 2.321-11.065 3.955-16.179.635 4.44-.502 8.733-1.158 13.123.765-.73 1.556-1.335 2.385-1.645l-.235.814c.924-1.975 1.978-3.869 3.075-5.673.103 2.213-.173 4.418-.475 6.577l.128-.139c.093.486.183.967.272 1.457a6.015 6.015 0 0 0 1.222-.802c.639-1.156 1.274-2.279 1.912-3.211l.007.878c1.056-1.741 1.871-3.823 3.051-5.669-.018.57-.464 1.479-.565 2.109l.557-.415c-.384 1.573-.362 3.629-.449 5.348.343-.861.741-1.653 1.216-2.299.091.589.182 1.208.293 1.814.709-.595 1.437-1.304 2.03-2.497-.909 2.259-.657 4.074-.97 6.304l.774-.355c.25-5.259.469-10.696.37-15.867 1.68 4.156 2.664 9.874 3.387 14.347-.215-3.514.179-6.915.511-10.314.08 3.369.595 7.262 1.439 10.518l.786.248c.233-2.337.791-4.629 1.665-6.633.13 2.72.455 5.379.676 8.056l.909.787c.567-1.559 1.218-3.132 1.622-4.743-.024 2.039.773 4.176.791 6.302 2.118-1.732 3.961-4.843 6.079-6.568-.116 1.67.436 3.848.289 5.473 2.659-4.744 3.833-10.676 6.693-15.281-.563 2.583-.318 5.172-.423 7.737 1.577-5.338 2.275-11.41 3.483-16.989.004 6.621-.503 13.918.855 20.271.604-4.285 1.094-9.63 2.87-13.048.867 5.686 1.649 11.572 2.875 17.066.94-3.403 1.429-7.512 1.919-11.267 1.011 4.231 2.674 10.981 5.002 14.713.034-2.959.456-6.085 1.442-8.786a338.834 338.834 0 0 1 2.537 11.037c-.357-4.876.334-9.488 1.757-13.554-.343 4.223.183 8.936 1.222 12.73 1.225-3.527 1.989-7.611 3.056-11.19.423 3.227.526 6.755 1.713 9.395 1.789-5.008 3.346-10.957 4.73-16.043-.002 3.408.061 6.815.084 10.227.673-4.727 1.45-10.134 3.036-14.407-.142 2.915-.283 8.576 1.465 10.892 1.461 1.934 3.505.984 4.561 2.136.675.736 2.553.446 3.566 1.582 1.212 1.337.731 5.775 2.528 7.692 1.137-4.326 1.719-8.952 2.591-13.416-.247 3.815.49 7.813 2.012 10.982 2.635-5.635 2.551-21.538-1.052-26.694 4.853 7.521 7.625 16.108 7.532 25.871.336-2.039 1.747-4.062 2.309-5.68.585 1.104 1.961 1.952 2.594 3.28.55-.611 1.874-1.538 2.385-2.331.137.672-.062 1.731.249 2.298 1.006-.829 3.159-1.097 4.229-2.38.287.662.047 1.435.214 2.141.888-.253 3.243-1.327 3.553-1.497.238-2.23 1.009-4.179.834-6.49.051.736.596 3.371.681 4.827 1.202-2.429 1.668-5.751 2.337-8.831.001 2.772.506 5.499 1.478 7.955a9.672 9.672 0 0 0 1.594-2.376c.515.293-.149 1.725.26 2.177.792-1.258 2.068-2.077 2.914-3.024-.014 1.219.334 2.73.291 3.95.799-.635 2.166-1.247 2.909-2.338.568.442-.304 1.589.729 1.688.839-1.184 2.875-2.154 3.683-3.396-.034 1.22.322 2.738.275 3.971.723-.792 2.214-1.401 2.926-2.359.108.614-.056 1.806.25 2.298.736-.696 1.475-1.18 2.164-1.384l.068-.879c1.231.551 2.309 1.573 3.384 2.587.482-1.341.766-2.618.582-5.021.332 2.63 1.03 3.823 1.85 6.089-.044-1.78.624-4.007.695-5.289.433 1.701 1.868 3.264 2.452 4.605.104-1.287.55-2.575.751-3.821.1 1.322.45 2.079.685 3.162.269-3.054.006-6.134.863-9.162.434 1.801 1.632 4.033 1.954 6.471 3.068-3.971 5.002-10.778 7.972-15.563.319 5.476-1.078 10.932-.344 16.295 2.124-4.579 4.663-11.152 7.809-14.895-.2 4.255-.324 8.642-.327 13.028.186-.805.323-1.439.346-1.602.37 2.263 1.285 4.191 1.872 5.836.12-1.716.541-3.041.7-4.603.14.851.564 1.824.984 2.792.574-1.38 1.098-2.768 1.649-3.961.102 1.526.151 3.065.183 4.604.396-.596.804-1.213 1.042-1.848.217 1.395 1.125 3.081 1.307 3.953.267-.94 1.237-2.596 1.862-3.889.848-7.676 1.171-15.707 2.464-22.494 2.338 6.487.828 15.474.888 23.275.403-.4.769-.8.956-1.144.148 1.143.636 2.227.789 3.132.347-.512 1.027-1.041 1.687-1.59.342-2.218.752-4.395 1.472-6.393.256 2.185.495 4.617.816 6.947.947-1.448 1.886-3.253 2.335-5.335-.171 1.966.042 3.986.033 5.975.486-1.458 1.119-2.769 1.976-3.741l.08.727c.907-2.033 1.739-4.083 2.835-5.67a63.396 63.396 0 0 0-.968 8.139l.391-.679.204-.668.016.291c1.197-2.158 1.937-5.23 3.012-7.744a81.51 81.51 0 0 0-.002 3.766c.741-3.293 1.52-6.557 2.505-9.636.439 3.065.031 6.062-.485 9.065a39.632 39.632 0 0 0 1.457 3.286c.924-1.997 1.991-3.912 3.092-5.732.153 3.236-.481 6.452-.867 9.524l.394.536c.537-.956 1.066-1.949 1.595-2.917.063-.621.101-1.249.067-1.915.06.428.211.822.316 1.232.521-.93 1.038-1.823 1.562-2.579-.044 2.169.019 4.478.387 6.637l.72.973c.337-1.681.765-3.385 1.345-4.919l-.001-.058.009.037c.383-1.016.808-1.97 1.356-2.718.357 2.513.907 5.215 1.691 7.315l.365-.795c.274-5.646.545-11.538.438-17.121 1.68 4.157 2.659 9.875 3.382 14.347-.211-3.513.183-6.914.511-10.314.095 3.94.787 8.579 1.917 12.098l.263-.619c.188-2.583.747-5.14 1.714-7.35.024.591.094 1.168.143 1.755l.263-.907a21.155 21.155 0 0 0-.213 1.53c.152 1.883.284 3.767.441 5.645a18.64 18.64 0 0 0 2.45-3.513l.119-.401.011.145c.866-1.642 1.622-3.42 2.287-5.143a31.052 31.052 0 0 0-1.09 7.958c2.348-2.277 3.413-5.981 5.387-8.865-.35 2.272-1.045 4.919-1.435 7.342.558-.635 1.121-1.233 1.71-1.707v.017a67.558 67.558 0 0 0 2.256-4.007 94.34 94.34 0 0 1 .164 4.767c1.403-3.613 2.592-7.407 4.562-10.586-.558 2.583-.309 5.177-.418 7.741 1.573-5.342 2.27-11.413 3.482-16.992.006 4.719-.226 9.769.118 14.588a20.47 20.47 0 0 1 .425-2.935c-.104 2.048.184 4.021.678 5.904.49-3.668 1.086-7.612 2.505-10.334.494 3.256.99 6.562 1.531 9.838.124-.721.252-1.434.427-2.115-.166 1.7-.074 3.388.122 5.067.264 1.428.486 2.89.795 4.276.935-3.403 1.425-7.512 1.923-11.268.852 3.581 2.173 8.944 3.97 12.775.557-1.663 1.148-3.377 1.345-4.573-.015.761-.014 1.56.005 2.363.229-1.609.588-3.186 1.12-4.637.465 1.883.948 3.924 1.42 5.978a85.473 85.473 0 0 1 1.795-4.516c.287-1.369.632-2.709 1.074-3.98-.216 2.7-.051 5.577.346 8.306.939-1.127 1.998-2.335 2.507-3.585-.138.963-.156 2.186-.356 3.134l.204-.278c.516-2.049 1.006-4.111 1.585-6.037.134 1.064.248 2.148.37 3.233.967-1.577 1.886-3.27 2.752-4.916-.055 1.266.158 2.641.115 3.827.444-.451.849-.993 1.225-1.584a753.47 753.47 0 0 0 1.974-7.207c-.001.94.015 1.876.023 2.817.14-.406.285-.803.413-1.217-.324 1.673.05 3.662.122 5.413.589-3.844 1.329-7.861 2.569-11.193-.14 2.869-.27 8.388 1.39 10.768l.28-.228.14.718c1.43 1.405 3.24.704 4.21 1.77.24.263.66.387 1.11.502.72-1.624 1.42-3.418 2.12-4.762.04 2.342 1 4.173 1.3 6.292.8-2.732 1.4-5.706 1.99-8.631-.01 2.659.71 4.394 1.4 6.728.25-1.426.49-2.861.77-4.271-.07 1.037-.05 2.09.02 3.137.75-1.503 1.73-3.221 2.28-4.78-.16 2.552.2 5.144.03 7.693.36-.774.82-1.566 1.29-2.342.65-6.937-.14-15.807-2.66-19.42 4.07 6.319 6.66 13.398 7.33 21.288 1.46-1.675 3.02-3.555 4.73-4.192-.52 1.338-.65 3.271-1.01 4.578l.07.074c.91-.994 2.57-1.897 3.43-3.073.1.486.18.967.28 1.457 3.18-1.513 4.1-5.536 6.19-8.804-.02.57-.47 1.479-.57 2.109l.56-.415c-.45 1.836-.34 4.365-.5 6.194.99-1.024 2.35-1.678 3.38-3.509l.01-.495.05.415.14-.239-.12.409c.17 1.089.53 3.048.61 4.241 1.2-2.428 1.67-5.751 2.33-8.826.01 2.767.51 5.491 1.48 7.95a9.459 9.459 0 0 0 1.59-2.375c.53.293-.15 1.725.27 2.177.78-1.262 2.06-2.077 2.91-3.024-.01 1.223.33 2.729.29 3.949.8-.634 2.17-1.246 2.91-2.338.56.443-.31 1.59.73 1.689.84-1.184 2.87-2.154 3.68-3.396-.03 1.219.32 2.738.28 3.97.72-.791 2.21-1.401 2.92-2.359.11.615-.06 1.807.25 2.299 2.16-2.042 4.39-2.448 5.13 1.633.74-1.961 1.31-3.184 1.07-6.33.33 2.629 1.03 3.823 1.85 6.089-.04-1.781.63-4.007.7-5.289.43 1.696 1.86 3.264 2.45 4.604.1-1.283.55-2.574.74-3.817.13 1.563.6 2.294.81 3.781.62-1.002 2.44-2.244 3.01-3.163.09 1.068.72 2.542.76 3.956.82-1.046 2.21-1.476 3.08-2.972.17.647.09 2.2.1 2.899 1.23.101 1.99-.579 2.94-.661.06.939.05 2.096.29 2.98.82-2.378 2.06-4.67 2.99-6.954-.26 3.141.46 4.838 1.17 7.089.86-3.478 1.04-7.079 1.97-10.487-.23 2.625.11 5.409.2 7.971.49-1.517 1.59-6.229 1.65-6.708.37 2.263 1.28 4.191 1.87 5.835.12-1.716.54-3.04.7-4.603.26 1.57 1.51 3.548 1.83 5.171.43-1.15 1.56-2.334 2.03-3.584.21 1.396 1.13 3.082 1.3 3.958.37-1.27 2-3.854 2.36-5.052.11 1.488.72 2.633.93 3.995.45-.813 2.34-2.218 2.88-3.199.15 1.143.64 2.227.79 3.132.63-.923 2.36-1.894 3.04-2.976.1.939.16 1.979.26 2.955 1.14-1.575 2.45-3.763 3.01-6.35-.2 2.274.15 4.621.03 6.911 2-2.984 3.06-6.954 4.89-9.62-.5 2.761-.83 5.52-.96 8.139 1.61-2.092 2.37-5.864 3.62-8.801-.08 2.91 0 5.905.22 8.753.4-1.782 1.17-4.684 1.18-7.147 1.34 3.815 3.24 7.624 5.54 10.341.4-1.886.93-3.761.81-5.961.47 3.253 2.45 5.995 4.33 7.59-.07-2.026.27-4.239.01-6.313.48 2.458 1.8 3.789 2.65 5.639.35-1.124 1.54-3.203 1.7-4.22.01 1.26.25 2.722.29 4.007 1.09-1.599 2.83-3.152 3.69-5.531-.38 1.986-.17 4.455-.49 6.319 1.95-2.538 3.15-6.822 4.21-10.485-.48 2.565-.47 5.311-.42 7.928 2.4-2.265 4.14-6.098 5.51-9.665a31.718 31.718 0 0 0-1.09 7.958c2.35-2.277 3.41-5.982 5.4-8.865-.42 2.685-1.35 5.913-1.64 8.651a69.009 69.009 0 0 0 4.16-7.01c.2 3.072.17 6.298.2 9.439.62-2.525 2.05-4.47 3-6.342-.28 2.638.65 5.102 1.02 7.244.44-.184 2.67-1.531 2.83-1.671 1.06-3.999.38-8.123 1.29-12.084-.27 5.172 1.91 9.901 3.82 13.734.37-3.537.49-7.238 1.32-10.44-.4 4.124.5 8.287 1.53 12.044.64-2.143 1.36-5.572 2.33-7.956.22 3.367.77 6.614 2.15 9.327.6-2.221 1.84-5.3 2.14-7.139-.06 2.885.07 6.246.89 8.757 1.05-3.629 2.28-6.912 3.71-10.225-.23 2.054.22 4.266.16 6.269 1.02-1.478 2.8-3.132 3.51-4.871-.14.962-.16 2.186-.36 3.133 1.83-2.162 3.43-5.19 4.91-7.997-.05 1.266.17 2.64.11 3.827 1.64-1.652 2.77-4.375 3.64-7.187-.38 1.936.22 4.329.15 6.253 1.32-.741 2.83-.148 4.22-1.497.1 1.713 1.24 3.346 1.42 4.775.53-.102 2.03-1.115 2.44-1.516.12.573-.12 1.949.23 2.336 1.24-1.822 2.36-5.206 3.49-7.368.04 2.342 1 4.174 1.3 6.292.79-2.731 1.4-5.706 1.98-8.63-.01 2.809.8 4.571 1.52 7.113.65-1.764 2.22-4.185 2.95-6.3-.16 2.553.2 5.141.03 7.694.86-1.888 2.35-3.879 3.05-5.461-.44 2.436-.3 4.594-.48 7.126.58-1.996 1.81-4.025 2.37-5.514-.28 1.352-.14 3.443-.34 4.848 1.87-1.842 3.85-4.826 6.09-5.665-.53 1.392-.65 3.445-1.05 4.749.89-1.031 2.65-1.956 3.55-3.17l.27 1.457c3.19-1.518 4.11-5.536 6.19-8.808-.02.57-.46 1.483-.57 2.112l.56-.414c-.45 1.836-.33 4.365-.5 6.194 1.06-1.092 2.54-1.718 3.59-3.828-.91 2.258-.66 4.074-.97 6.304.72-.147 1.52-.931 2.17-1.334l.39 1.78c1.07-2.057 2.53-2.445 3.97-2.106.06-.779.12-1.562.2-2.332 3.35 1.518 5.56 6.45 9.88 5.401 1.09-4.054.23-8.204 1.38-12.251.44 1.8 1.64 4.032 1.96 6.471 3.06-3.971 5-10.778 7.98-15.564.31 5.477-1.09 10.933-.36 16.296 2.13-4.579 4.67-11.153 7.81-14.896-.32 6.97-.5 14.292-.13 21.424 2.6-2.059 3.87-6.723 5.36-9.934.43 6.544.03 13.291.52 19.805 4.89-10.827 4-27.227 6.34-39.478 3.5 9.714-1.66 25.034 2.81 33.579 1.12-5.361 1.19-11.321 2.98-16.3.49 4.243.91 9.414 2.05 12.953.42-3.501 1.27-7.032 3.11-9.106.16 2.528.88 4.62.8 7.172.41-1.849 1.31-3.587 1.75-5.324.2 2.786.27 5.752.2 8.608 1.87-7.194 3.11-14.995 5.33-21.931.93 6.53-1.98 12.738-1.53 19.403 1.05-4.616 3.23-8.909 5.59-12.783.17 3.792-.75 7.57-1.06 11.107 1.37-2.356 2.73-5.211 4.13-7.226-.06 2.909.06 6.062.87 8.777.57-3.099 1.37-6.658 2.94-8.825.4 2.829 1.03 5.95 1.99 8.122.3-6.112.62-12.616.51-18.723 1.67 4.157 2.66 9.874 3.38 14.347-.21-3.514.18-6.914.5-10.314.11 4.168.85 9.148 2.1 12.724.06-2.989.68-6.026 1.8-8.595.18 3.747.73 7.381.87 11.108.58-2.3 1.74-4.616 2.34-7-.03 2.035.77 4.172.79 6.299 2.12-1.733 3.96-4.844 6.08-6.568-.12 1.67.44 3.847.29 5.472 2.65-4.744 3.83-10.676 6.69-15.281-.56 2.583-.32 5.176-.42 7.741 1.58-5.342 2.27-11.414 3.48-16.993 0 6.621-.5 13.918.86 20.271.6-4.285 1.09-9.634 2.86-13.048.87 5.686 1.65 11.573 2.88 17.067.93-3.404 1.43-7.513 1.92-11.268 1.01 4.231 2.67 10.981 5 14.713.03-2.959.46-6.085 1.44-8.786.86 3.448 1.77 7.414 2.54 11.037-.35-4.876.34-9.487 1.75-13.554-.34 4.224.19 8.936 1.23 12.73 1.23-3.527 1.99-7.611 3.06-11.19.41 3.228.52 6.751 1.71 9.395 1.79-5.008 3.34-10.957 4.73-16.043-.01 3.408.06 6.815.08 10.223.67-4.723 1.45-10.13 3.04-14.403-.14 2.915-.28 8.576 1.46 10.893 1.46 1.933 3.51.983 4.57 2.135.66.737 2.54.447 3.56 1.578 1.21 1.341.73 5.779 2.52 7.692 1.15-4.322 1.73-8.948 2.6-13.411-.25 3.814.49 7.812 2.01 10.981 2.63-5.635 2.55-21.538-1.05-26.694 4.85 7.521 7.62 16.108 7.53 25.871.34-2.039 1.75-4.062 2.31-5.675.58 1.095 1.96 1.947 2.6 3.275.55-.61 1.87-1.538 2.38-2.331.13.672-.06 1.732.25 2.298 1.01-.829 3.16-1.097 4.22-2.38.29.663.05 1.435.22 2.141.89-.253 3.24-1.331 3.55-1.497.24-2.23 1.01-4.178.84-6.49.05.732.59 3.372.68 4.827 1.2-2.429 1.67-5.751 2.33-8.826.01 2.767.51 5.49 1.49 7.95a9.716 9.716 0 0 0 1.58-2.375c.53.293-.15 1.724.27 2.177.78-1.263 2.07-2.078 2.91-3.025-.01 1.224.33 2.73.29 3.95.8-.635 2.17-1.247 2.91-2.338.57.442-.31 1.589.73 1.689.84-1.185 2.88-2.155 3.69-3.397-.04 1.22.31 2.739.27 3.971.72-.792 2.21-1.401 2.93-2.359.1.614-.06 1.807.24 2.298 2.16-2.041 4.39-2.448 5.13 1.633.74-1.961 1.31-3.183 1.07-6.33.33 2.63 1.03 3.824 1.85 6.09-.04-1.781.63-4.007.7-5.29.43 1.697 1.86 3.264 2.45 4.605.1-1.283.55-2.575.74-3.817.13 1.563.61 2.294.81 3.781.62-1.003 2.44-2.245 3.01-3.163.09 1.068.72 2.541.76 3.956.82-1.047 2.21-1.476 3.08-2.973.17.647.09 2.2.1 2.899 1.23.101 1.99-.578 2.94-.661.07.94.06 2.097.29 2.98.82-2.378 2.06-4.67 3-6.954-.27 3.141.45 4.838 1.16 7.089.86-3.477 1.04-7.079 1.97-10.486-.23 2.624.11 5.408.21 7.97.48-1.516 1.58-6.228 1.64-6.708.37 2.264 1.29 4.191 1.87 5.836.12-1.716.54-3.041.7-4.603.26 1.57 1.51 3.547 1.83 5.17.43-1.15 1.56-2.333 2.03-3.583.22 1.395 1.13 3.082 1.31 3.957.36-1.269 2-3.853 2.35-5.052.11 1.488.73 2.633.94 3.995.44-.812 2.34-2.218 2.87-3.198.15 1.142.64 2.226.79 3.131.63-.923 2.36-1.894 3.04-2.976.1.94.17 1.979.26 2.956 1.14-1.575 2.45-3.764 3.01-6.351-.19 2.275.15 4.621.03 6.912 2-2.984 3.06-6.955 4.89-9.62-.5 2.761-.83 5.52-.96 8.139 1.61-2.093 2.36-5.864 3.62-8.801-.07 2.909 0 5.905.22 8.752.4-1.782 1.17-4.683 1.18-7.147 1.34 3.816 3.24 7.624 5.54 10.342.4-1.89.93-3.761.82-5.965.46 3.256 2.45 5.998 4.33 7.594-.08-2.026.25-4.24 0-6.313.48 2.457 1.8 3.789 2.65 5.638.35-1.124 1.55-3.203 1.7-4.22.01 1.261.25 2.723.29 4.008 1.09-1.599 2.83-3.152 3.68-5.531-.37 1.985-.16 4.455-.48 6.319 1.95-2.538 3.15-6.823 4.21-10.486-.48 2.566-.46 5.312-.42 7.929 2.41-2.265 4.14-6.099 5.51-9.665a31.26 31.26 0 0 0-1.09 7.957c2.35-2.277 3.41-5.981 5.4-8.865-.42 2.685-1.35 5.914-1.64 8.651a70.858 70.858 0 0 0 4.17-7.01c.18 3.073.17 6.298.19 9.44.62-2.526 2.06-4.471 3-6.343-.27 2.638.65 5.102 1.01 7.245.46-.185 2.68-1.532 2.84-1.671.12-.472.22-.939.3-1.415a89.1 89.1 0 0 1 .29-3.311l.05.024c.13-2.474.09-4.957.65-7.382-.17 3.21.61 6.259 1.69 9.025.79.706 1.56 1.474 2.37 2.147.23-2.725.45-5.441 1.08-7.879-.3 3.079.13 6.182.79 9.116.45.211.92.363 1.41.432.48-1.825 1.01-3.866 1.66-5.46.09 1.355.26 2.677.48 3.96.61-3.599.06-7.254 1.08-10.833.44 1.8 1.63 4.032 1.95 6.471 3.07-3.971 5-10.778 7.98-15.564.31 5.477-1.08 10.933-.35 16.296 2.12-4.579 4.67-11.153 7.81-14.896-.21 4.497-.34 9.142-.32 13.778.92-1.522 1.64-3.396 2.24-5.317-.39 1.935.21 4.329.14 6.252.64-.366 1.33-.403 2.03-.512.38-.954.75-1.882 1.13-2.711.06.778.09 1.576.12 2.358l.94-.632c.11 1.713 1.24 3.347 1.42 4.776.33-.062 1.02-.475 1.6-.873 1.12-8.478 1.33-17.69 2.79-25.302 2.16 6.002 1.02 14.152.88 21.519.3-.682.59-1.331.89-1.892.04 2.342 1 4.173 1.29 6.292.8-2.732 1.41-5.706 1.99-8.631 0 .695.05 1.327.14 1.921.17-.66.37-1.303.6-1.93.25 2.215.49 4.675.82 7.026.67-1.76 2.19-4.122 2.91-6.203-.11 1.72.02 3.458.06 5.192.39-.82.83-1.562 1.37-2.168.03.628.11 1.222.2 1.811.56-.922 1.1-1.815 1.45-2.602-.4 2.244-.32 4.261-.45 6.543.44-1.333 1.02-2.618 1.34-3.903l.05 1.064c.37-.758.72-1.478.95-2.092-.28 1.351-.13 3.443-.33 4.847l.9-.964c1.22-5.475 2.32-11.065 3.96-16.179.63 4.441-.5 8.733-1.16 13.123.77-.726 1.55-1.335 2.38-1.645l-.23.815c.92-1.976 1.98-3.87 3.07-5.673.1 2.212-.17 4.417-.47 6.576l.13-.139.27 1.457c.45-.218.85-.497 1.22-.801.64-1.161 1.28-2.28 1.92-3.212v.878c1.05-1.74 1.87-3.823 3.05-5.673-.02.57-.46 1.483-.56 2.113l.55-.415c-.38 1.574-.36 3.629-.45 5.345.35-.858.75-1.649 1.22-2.296.09.59.18 1.204.29 1.815.71-.596 1.44-1.304 2.03-2.498-.91 2.259-.65 4.074-.97 6.304l.77-.355c.26-5.259.47-10.696.38-15.867 1.68 4.157 2.66 9.874 3.38 14.347-.21-3.514.18-6.914.51-10.314.09 3.369.59 7.262 1.44 10.518l.79.248c.23-2.333.79-4.629 1.66-6.637.14 2.72.46 5.383.68 8.06l.91.792c.57-1.564 1.22-3.137 1.62-4.744-.03 2.035.78 4.172.8 6.299 2.11-1.733 3.96-4.844 6.07-6.568-.12 1.67.44 3.847.29 5.472 2.66-4.744 3.83-10.676 6.69-15.281-.56 2.583-.31 5.176-.42 7.741 1.58-5.342 2.27-11.414 3.49-16.993 0 6.621-.51 13.918.85 20.271.6-4.285 1.09-9.634 2.87-13.048.86 5.686 1.65 11.573 2.88 17.067.93-3.404 1.42-7.513 1.92-11.268 1 4.231 2.66 10.981 5 14.713.03-2.959.46-6.085 1.44-8.786.85 3.448 1.77 7.414 2.53 11.037-.35-4.876.34-9.487 1.76-13.554-.34 4.224.18 8.936 1.22 12.73 1.23-3.527 1.99-7.611 3.06-11.19.42 3.228.53 6.751 1.71 9.395 1.79-5.008 3.35-10.957 4.73-16.043 0 3.408.06 6.815.08 10.223.68-4.723 1.45-10.13 3.04-14.403-.14 2.915-.28 8.576 1.46 10.893 1.46 1.933 3.52.983 4.57 2.135.67.737 2.55.447 3.57 1.578 1.21 1.341.73 5.779 2.52 7.692 1.14-4.322 1.72-8.948 2.59-13.411-.24 3.814.49 7.812 2.01 10.981 2.64-5.635 2.56-21.538-1.05-26.694 4.86 7.521 7.62 16.108 7.53 25.871.34-2.039 1.75-4.062 2.31-5.676.58 1.096 1.97 1.948 2.6 3.276.55-.61 1.87-1.538 2.38-2.331.14.672-.06 1.732.25 2.298 1.01-.828 3.16-1.097 4.23-2.38.29.663.05 1.435.21 2.141.89-.253 3.25-1.331 3.56-1.497.24-2.23 1.01-4.178.83-6.49.06.732.6 3.372.68 4.827 1.21-2.429 1.67-5.751 2.34-8.826 0 2.767.51 5.49 1.48 7.95a9.477 9.477 0 0 0 1.59-2.375c.52.293-.15 1.724.26 2.177.79-1.263 2.07-2.078 2.91-3.025 0 1.224.34 2.73.29 3.95.8-.635 2.17-1.247 2.92-2.338.56.442-.31 1.589.73 1.688.84-1.184 2.87-2.154 3.68-3.396-.04 1.22.32 2.739.27 3.971.73-.792 2.22-1.401 2.93-2.359.11.614-.06 1.807.24 2.298 2.17-2.041 4.4-2.448 5.14 1.633.74-1.961 1.31-3.183 1.06-6.33.34 2.63 1.03 3.824 1.85 6.09-.04-1.781.63-4.007.7-5.29.43 1.697 1.87 3.264 2.46 4.605.09-1.283.54-2.575.74-3.817.12 1.563.6 2.293.81 3.781.62-1.003 2.44-2.245 3-3.163.1 1.068.73 2.541.77 3.956.82-1.047 2.21-1.476 3.07-2.973.17.647.1 2.2.1 2.899 1.23.101 1.99-.578 2.95-.661.06.94.05 2.097.29 2.98.82-2.378 2.05-4.67 2.99-6.954-.27 3.141.46 4.838 1.17 7.089.85-3.477 1.03-7.079 1.96-10.486-.22 2.624.11 5.408.21 7.97.49-1.516 1.58-6.228 1.64-6.708.38 2.264 1.29 4.191 1.87 5.836.12-1.716.55-3.041.71-4.603.25 1.57 1.51 3.547 1.83 5.17.43-1.15 1.55-2.333 2.03-3.583.21 1.395 1.12 3.081 1.3 3.957.36-1.269 2-3.853 2.35-5.052.12 1.488.73 2.633.94 3.995.45-.812 2.34-2.218 2.88-3.198.15 1.142.64 2.226.79 3.131.63-.923 2.36-1.894 3.04-2.976.09.94.16 1.979.25 2.956 1.14-1.575 2.46-3.764 3.02-6.351-.2 2.275.14 4.621.02 6.912 2-2.984 3.06-6.955 4.9-9.62a62.11 62.11 0 0 0-.96 8.139c1.6-2.093 2.36-5.864 3.62-8.801-.08 2.909 0 5.905.21 8.752.41-1.782 1.17-4.683 1.18-7.147 1.35 3.816 3.25 7.624 5.54 10.342.41-1.89.93-3.765.82-5.969.47 3.26 2.45 6.003 4.33 7.597-.08-2.025.26-4.239 0-6.312.48 2.457 1.81 3.789 2.66 5.638.35-1.124 1.54-3.203 1.69-4.22.02 1.261.26 2.723.29 4.008 1.1-1.599 2.83-3.152 3.69-5.531-.38 1.985-.16 4.455-.49 6.319 1.96-2.538 3.16-6.823 4.22-10.486-.48 2.566-.47 5.312-.43 7.929 2.41-2.265 4.14-6.099 5.51-9.665a31.702 31.702 0 0 0-1.08 7.957c2.34-2.277 3.41-5.981 5.39-8.865-.41 2.685-1.34 5.914-1.64 8.651a67.18 67.18 0 0 0 4.17-7.01c.19 3.073.17 6.298.2 9.44.61-2.526 2.05-4.471 2.99-6.343-.27 2.638.66 5.102 1.02 7.245.45-.185 2.68-1.532 2.83-1.671 1.07-4 .38-8.124 1.29-12.084-.26 5.172 1.92 9.9 3.83 13.734.37-3.538.49-7.239 1.31-10.441-.39 4.125.5 8.287 1.53 12.045.64-2.143 1.36-5.573 2.33-7.957.23 3.368.77 6.615 2.15 9.327.6-2.221 1.85-5.299 2.15-7.138-.06 2.884.06 6.245.89 8.756 1.05-3.629 2.28-6.911 3.71-10.225-.24 2.055.22 4.267.16 6.269 1.02-1.477 2.8-3.131 3.5-4.871-.14.963-.15 2.187-.35 3.134 1.82-2.162 3.43-5.191 4.91-7.998-.06 1.266.16 2.641.11 3.827 1.64-1.652 2.77-4.375 3.64-7.186-.38 1.935.21 4.329.15 6.252 1.31-.74 2.83-.148 4.22-1.497.1 1.713 1.23 3.347 1.42 4.776.53-.102 2.02-1.116 2.44-1.516.12.572-.13 1.949.23 2.335 1.24-1.821 2.35-5.206 3.48-7.367.04 2.342 1.01 4.173 1.3 6.292.8-2.732 1.4-5.706 1.99-8.631-.01 2.809.8 4.572 1.52 7.114.65-1.765 2.21-4.185 2.95-6.3-.16 2.553.2 5.141.03 7.693.86-1.887 2.34-3.878 3.05-5.46-.44 2.436-.3 4.594-.49 7.126.58-1.996 1.82-4.026 2.37-5.514-.27 1.351-.13 3.443-.33 4.847 1.86-1.841 3.85-4.825 6.09-5.665-.54 1.393-.66 3.446-1.06 4.749.89-1.031 2.65-1.956 3.55-3.17.1.486.18.968.27 1.457 3.19-1.517 4.11-5.536 6.2-8.808-.02.57-.47 1.483-.57 2.113l.56-.415c-.45 1.837-.34 4.365-.5 6.194 1.06-1.091 2.54-1.717 3.59-3.828-.91 2.259-.66 4.074-.97 6.304.72-.146 1.51-.93 2.16-1.334l.39 1.781c3.09-5.932 9.4 1.841 9.4 1.841l-.41 18.348.37 29.004-297.29 3.745-83.52 1.052-292.55 3.685-4.74.06-191.59 2.413-184.48 2.324-112.806 1.421-83.524 1.053-292.549 3.685-4.741.06-376.07 4.737c-.22-17.445-2.142-36.534-.44-53.691m1852.4-544.198c1.33 1.655 3.75 1.671 4.85-.259 2.99-5.229 6.02-8.855 12.23-9.4 3.69-.338 7.26-.772 10.86-1.744 3.49-.931-12.77-4.748-17.41-2.533-3.84 1.819-6.41 4.51-8.62 7.772-5.06-5.192-21.85-15.448-19.84-12.44 4.78 7.185 12.52 11.895 17.93 18.604Zm-152.78 82.324c1.9 7.296 5.69 13.91 7.52 21.253.23.93.9 1.792 1.86 2.072 4.43 1.232 8.27 3.061 12.14 5.509 3.06 1.961-4.65-9.008-8.95-10.362-1.95-6.709-13.48-21.95-12.57-18.472Zm120.69-20.634c2.73-4.409 9.77-1.786 12.72-5.974 1.56-2.209-9.47-.756-10.81-.29-.91.338-1.7.745-2.47 1.205-.48-3.447-6.25-11.684-5.54-9.093 1.25 4.515.98 9.262 2.22 13.793.51 1.871 2.97 1.819 3.88.359Zm4.3-33.85 10.88-2.818c2.65-.693-10.72-1.56-10.72-1.56-2.81-3.045-12.61-11.778-11.75-9.209 1.68 4.991 6.14 9.172 9.55 13.042.48.539 1.36.719 2.04.545Zm-128.9.962c.82.539 1.85.169 2.52-.418 5.76-5.017 13.69-4.023 19.9-7.972 2.29-1.459-9.96-1.121-13.84.09-2.87.898-5.33 2.12-7.64 3.838-2.47-2.046-10.23-9.469-9.31-6.92 1.6 4.409 4.32 8.791 8.37 11.382Zm66.02 110.767c-.09 3.537-.84 7.459.06 10.927.88 3.421 10.62 1.407 10.62 1.407s-3.9-4.404-6.16-2.881l-.37.248c-.16-.714-.21-1.427-.21-2.157-.02-2.569-3.87-10.23-3.94-7.544Z"/>
    <path d="m1731.56 638.695-.13-.52c-.89.195-1.79.304-2.81.308l-.08-.013c.62.982 1.23 1.956 1.85 2.925.4-.886.78-1.797 1.17-2.7Zm28.24 44.593c-.25-1.482-.46-2.959-.7-4.44a670.232 670.232 0 0 1-7.18 3.15c3.12 1.298 6.24 2.596 9.37 3.886-.74-.541-1.29-1.377-1.49-2.596Zm35.11-9.745c1.77-.346 3.4-.816 4.98-1.332a867.869 867.869 0 0 1-4.91-4.302c-.22 1.785-.42 3.578-.59 5.376l.27.362.25-.104Zm62.79-41.601c-1.47.928-2.99 1.814-4.6 2.43.7 1.065 1.32 2.163 1.87 3.291.93-1.901 1.94-3.774 2.73-5.721Zm-9.74 3.008-.86-.844-.52-.812-.01-.021c-.84.15-1.69.312-2.53.454l.34.324.3.529c1.06.487 2.1 1.04 3.12 1.635.37-.137.77-.146 1.15-.096-.29-.407-.66-.782-.99-1.169Zm-12.75-15.732c1.02.761 2.03 1.589 3.03 2.48l.44-.005c-3.67-5.018-3.48-6.969-3.47-2.475Zm-.54-13.573s-.64-.637-1.58-1.556c-1.59.291-3.18.457-4.78.545-.41.42-.81.84-1.2 1.26 2.55.167 5.1.163 7.56-.249Zm-21.38-4.477c-.79-.304-1.81-1.278-2.86-2.618l-.75.887-.22.15-.2.133-.76.341-.47.071-.12-.005-1.07-.324c-.52-.345-1.03-.645-1.55-.97 1.15 1.486 2.2 3.034 3.23 4.598 1.09-.74 2.48-1.057 3.84-.724.31-.424.75-.753 1.28-.94.58-.2 1.13-.312 1.7-.466l.07-.608c-.54.479-1.46.716-2.12.475Zm-12.55.774c-.29-.429-.58-.858-.88-1.286-.85 1.51-1.88 2.992-2.85 4.29 1.28 1.065 2.55 2.126 3.78 3.233l.99-.25.16-.004a45.16 45.16 0 0 0-1.82-2.247c-1.09-1.244-.63-3.075.62-3.736Zm-6.39-2.139c-.98-.624-1.87-1.344-2.77-2.043.01 1.556-1.7 2.838-3.47 2.043-1.35-.591-2.23-1.498-2.86-2.572l-.25.025c1.71 2.048 3.49 4.028 5.4 5.88a5.222 5.222 0 0 1 2.32-.441c.33-.479.94-1.677 1.66-2.88l-.03-.012Zm-35.22 6.508c-.46-.312-.93-.612-1.39-.912.37 3.017.76 5.909.62 8.855.97-.579 1.97-1.095 3.01-1.536l-2.2-4.389c-.35-.704-.3-1.411-.04-2.018Zm-10.16 62.813c1.38-.279 2.74-.604 4.1-.949-.49-.612-.96-1.236-1.42-1.872a98.706 98.706 0 0 0-5.26-2.118c.84 1.652 1.7 3.295 2.58 4.939Zm16.95-44.227c-.32-1.489-.56-3-.73-4.539l-.76-1.506h-3.24c-.42 0-.76-.104-1.06-.258-.53.345-1.04.707-1.54 1.081 2.3 1.906 4.79 3.604 7.33 5.222Zm-22.19-6.545c-1.64-2.034-4.86-2.48-7.7-2.584.84 2.31 2.24 4.448 2.53 6.982.14 1.274-1.18 2.343-2.35 2.343h-3.9v7.927l.16-.046.05-.009c.47-.183.97-.195 1.43.009l.06-.129-.14-.733c-.09-.99.51-1.706 1.29-2.055l.13-.304c.99-2.188 3.25-2.646 5.24-2.051.21-.375.48-.703.91-.878.52-1.835 1.32-3.612 2.12-5.255l.3-.387c-.74-.87-.65-1.993-.13-2.83Zm132.19 29.364c0 .587.01 1.157 0 1.723v5.638c.46.428.91.869 1.35 1.331 1.69-2.413 3.4-5.867 4.72-8.655-2.05-.199-3.99-1.106-6.07-2.272v2.235Zm-167.18 10.223c2.16.891 2.75 1.34 4.25 3.275a52.666 52.666 0 0 1 2.19 3.046l.33-.121c-.13-.72-.37-2.03-.37-3.94v-6.242c0-1.473 1.5-2.455 2.8-2.309-.85-3.196-1.73-6.387-2.72-9.554-.69-2.238 1.63-3.32 3.31-2.55l-.18-.57c-.61-2.214 1.97-4.511 3.69-5.405l.06-.021c.54-.412 1.27-.599 1.98-.516 1.14-.104 2.34.037 3.55.191V622.75a2.356 2.356 0 0 1 2.34-2.338h3.32c-.83-2.326-2.25-4.473-2.54-7.024-.14-1.26 1.18-2.355 2.34-2.338 4.72.062 9.91.324 13.61 3.603l.27.296c1.12-1.016 3.34-.962 3.99.94.36 1.049.79 2.056 1.23 3.067l.59-.279c2.04-5.929.2-11.692-.17-17.771-.12-1.835 2.05-2.834 3.52-2.018 1.58.865 3.08 1.839 4.57 2.837-.21-.632-.43-1.252-.63-1.889-1.52-.815-1.49-3.229.04-4.082 1.16-2.18 4.12-3.316 6.57-2.009.59.316 1.16.682 1.75 1.011.97-.121 1.94-.233 2.91-.371.24-1.656 2.53-2.783 3.99-1.373l.75.679.79-.121c-.82-3.791-2.01-7.511-2.41-11.389-.24-2.271 2.61-2.771 4-1.651 1.89 1.514 4.81 3.441 7.46 5.617l.87.016c.56.142 1.09.292 1.64.441.28-2.076.41-3.99.08-4.943l-.88-.948c-1.89-2.018.47-4.781 2.84-3.67.9.42 1.54 1.123 1.99 1.997.96 1.04 1.95 2.151 2.95 3.316.24-.403.54-.77 1.03-1.053 4.07-2.384 6.04 5.46 6.93 10.981.41.216.83.45 1.24.683-.46-3.82-.16-7.64 1.15-11.406.8-2.305 3.66-2.142 4.52 0 1.36 3.396 6.19 9.221 6.67 14.231 1.76-2.235 4.4.366 6.5 4.373.92-.029 1.87-.033 2.84-.038.46-.457.93-.894 1.39-1.344-1.31-1.273-2.35-2.276-2.58-2.467-2.35-1.906.98-5.193 3.31-3.304.62.504 1.76 1.319 3.09 2.33a60.527 60.527 0 0 1 3.44-2.696c1.48-1.078 3.52.375 3.52 2.018v6.242l-.17.828c1.5 2.03 2.24 4.094 1.16 5.879-1.53 2.551-4.81 3.37-8.48 3.437h20.76c1.27 0 2.34 1.061 2.34 2.338v4.199c2.31 1.851 4.34 3.94 5.77 6.262 1.84.928 3.2 2.33 3.51 4.523.32 1.652 1.03 3.512 1.63 5.372 1.34-2.306 2.55-4.769 3.82-6.404 1.42-1.823 4.78.15 3.92 2.272-1.39 3.408-3.24 6.299-5.36 8.958-.56.891-1.16 1.739-1.84 2.488-.42.845-1.14 1.552-2.27 2.102-2.09 2.113-4.33 4.173-6.58 6.262.95.545 1.94 1.015 2.9 1.539 1.03-.798 2.05-1.593 3.12-2.326 2.69-1.855 5.75-2.75 8.92-3.087-.17-1.644-.37-3.129-.37-4.073 0-1.819 1.98-2.859 3.52-2.019 2.98 2.222 6.36 3.263 10.13 3.121 2.06-1.094 4.37 1.107 3.2 3.2-1.66 2.971-4.1 10.015-7.56 14.405 3.29 4.198 5.97 8.7 7.56 11.318 1.22 2.018-1.2 4.389-3.2 3.199-3.97-2.338-7.46-5.022-10.82-7.959.59 2.492 1.16 4.984 1.58 7.51 4.38 4.785 8.92 9.437 13.73 13.848 4.51 4.127-2.06 10.423-6.62 6.615-4.99-4.156-9.97-8.334-14.91-12.536l.41.628c3.06 4.793-3.48 8.821-7.36 5.667-5.86-4.768-11.2-10.015-16.26-15.52-.99-.886-2-1.764-2.98-2.655l-.34-.1c3.91 4.536 7.88 9.009 12.06 13.315 1.8 1.844-.63 5.289-2.83 3.67-3.29-2.405-6.51-4.897-9.7-7.423-.3 1.411-1.38 2.563-2.74 3.179 1.96 2.28 3.95 4.531 5.91 6.816.98 1.14.76 2.388.02 3.154 1.94 2.267-1.07 5.242-3.33 3.27-9.63-8.363-19.49-16.444-29.47-24.37-.44.312-.91.599-1.37.894 8.53 6.45 16.78 13.249 24.78 20.172 2.02 1.74-.62 5.106-2.84 3.67-9.76-6.308-18.96-13.34-27.81-20.8-2 .815-4.18 1.456-6.46 1.976l.01.021c1.5 2.176-2.03 4.922-3.67 2.834l-.2-.254c-.2.624-.47 1.169-.85 1.606 6.33 4.781 12.78 9.399 19.49 13.702 2.58 1.643.35 5.309-2.36 4.036-11.68-5.48-22.77-13.007-34.06-20.076-.57 1.485-2.7 2.488-3.88.986l-.36-.475v.004l-.03-.033c-.38-.495-.75-.994-1.13-1.489-.54 1.568-1.08 3.137-1.67 4.706-.88 2.326-3.71 3.661-5.98 3.245 2.96 1.207 5.94 2.393 8.95 3.479 5.64 2.034 3.2 11.08-2.49 9.029-10.55-3.807-20.67-8.676-31.22-12.483-2.79-1.007-3.83-3.674-3.12-5.917l-.25-.337-.7.978c-2.62 3.433-8.83 2.746-8.73-2.359.01-.425.03-.837.05-1.257l-.51-.682c-.56-1.211-1.09-2.434-1.61-3.653-.82.865-1.64 1.705-2.43 2.658-3.35 4.095-10.59-1.473-7.35-5.667l.72-.99c-1.85.865-3.54 1.685-4.86 2.247-1.57.67-3.52-.075-3.52-2.018v-9.362c0-1.382 1.52-2.851 2.96-2.26Zm-6.25-21.845c.92.225 1.84.441 2.78.521l.12.004-.14-.233c-1.32-2.151-3.26-3.966-5.03-5.742-2.14-2.131 1.17-5.443 3.31-3.304 2.54 2.538 5.32 5.214 6.69 8.592.74 1.798.11 3.612-1.42 4.71-1.99 1.44-5.44.475-7.55-.029-2.93-.707-1.69-5.222 1.24-4.519Zm110.07-62.209c.65-.691.55-.595 0 0Z"/>
    <path d="M1851.73 609.227h-1.04c-.91 0-1.39-1.136-.74-1.776.42-.408.79-.737 1.18-1.099.44.35.87.67 1.33 1.099.67.632.15 1.776-.73 1.776Z"/>
    <path d="m1802.02 581.374-.2.187c.64.937 1 .641 1-2.5 0-1.024 1.42-1.432 1.93-.525l.24.421c.02-.371.19-.737.67-.899.66-.221 1.29-.387 1.91-.545l.11-.237c-2.27-.716-4.74-1.02-7.46-.82 1.35 1.981 1.12 1.619 2.07 3.907l-.27 1.011Zm48.52 20.047c.18.292.43.691.71 1.111 1.15.425 2.23.837 3.18 1.22-.42.249-.86.578-1.3.919.88.687 1.86.99 2.8.179l.28-.341c-.57-.246-1.1-.487-1.78-.757.86-.521 1.66-.853 2.42-.966.06-1.04-.22-2.193-.62-3.195-1.05 1.052-2.71 2.592-3.9 2.405-.42-.067-.81-.587-.77-1.003.14-1.481 1.33-3.183 2.41-4.431-.86.366-1.61.861-2.28 1.443v.054c-.24.712-.83 1.303-1.6 1.794l-.56 1.082c.39-.025.81.141 1.01.486Zm9.55 19.54v-.016c-.2-.662.38-1.286 1-1.299.15-.382.32-.757.59-1.102.94-1.186 2.32-1.844 3.79-2.281-.27-.224-.48-.57-.65-.948l-.46-.362c-.27-.491-.48-.949-.66-1.373-.92 1.052-1.88 2.064-3.12 2.788-.49.282-.92.087-1.21-.234-.59 3.017-.76 5.485.72 4.827Zm5.02-1.856c.51.833.94 1.511 1.31 2.089.43-.803 1.07-2.022 2.26-3.341l.71-.291c-1.55.233-3.27.507-4.7 1.248l.42.295Zm5.35-4.676.59.045c.43-.495.9-.94 1.4-1.381l.22-.554c-1.53-1.951-2.99-2.463-4.4-1.602l-.27.675c.68.944 1.27 2.176 1.71 3.154l.75-.337Zm2.16 6.807c.06-.387.07-.807-.04-1.332-.2-.94 1.01-1.856 1.74-1.011l.35.516c-.03-.745-.02-1.464-.03-2.201-.76.416-1.78.424-2.76.387l-.68.691-.56.237c.68.894 1.36 1.789 1.98 2.713Zm-3.05 20.892c-.32.857-.7 1.639-1.14 2.317 2.87.396 6.18-.582 10.16-2.471-2.8.832-6.69-1.873-9.02.154Zm2.97 11.829c.42-.016.94.325 1 .766 1.04 1.269 2.09 2.542 3.13 3.82l.29-.824c-1.83-2.601-2.05-5.755-1.26-10.278.09-.516.64-.799 1.14-.74l.11-.225-.76-.791c-3.73 1.977-5.08 2.659-6.73 3.25 1.14 1.261 2.18 2.896 3.08 5.022Zm20.12 7.253c.12-.391.15-.787.16-1.186l-.78.137c-1.21-.17-3.13-.266-4.83-.749.39 1.623 1.01 3.554 2.71 4.111 1.43.462 2.41-1.244 2.74-2.313Zm3.41-9.009c.01-.491-.07-.982-.17-1.464-1.02.682-2.04 1.356-3.06 2.039l-.16.033c.12.412.21.869.3 1.344 1.62-.038 3.07-.42 3.09-1.952Zm-15.2-30.491.31.133-.21-.22c-.37.07-.76.008-1-.429-.82-1.498-1.97-2.671-3.29-3.678-.02 2.313.03 4.785.92 6.791.44.994-.8 2.226-1.63 1.26l-.16-.22v.008l-.02-.046c-.56-.72-.99-1.527-1.39-2.346l-.33.661.41.683.11.574.93.466a43.69 43.69 0 0 1 1.84 3.562l.42-.005-.02-.903-.02-.05v-5.201c0-.57.48-1.04 1.04-1.04h2.09Zm-4.79-9-.75.258.56.62.07.928.23.054c.38.208.66.524 1.02.766.88.195 1.76.424 2.64.64l.26-.586a36.84 36.84 0 0 0-4.03-2.68Zm-96.92-33.612c2.21.737 3.26 1.045 3.58.591l.09-.57c-.04-.587-.32-1.498-.79-2.904-.31-.949.77-1.523 1.53-1.174 1.19.545 9.22 5.201 4.98 1.635-.83-.703.06-1.98 1.01-1.739.7.179 1.62.57 2.54.928.9-.911 1.8-1.827 2.7-2.742.64-.803 1.7-.046 1.68.811l.83.229.03.029c4.48-.42 7.42-.104 10.84 1.29l.6-.545c1-.162 2.1-.403 3.17-.408l.61-.644-.61.644c.63 0 1.25.063 1.81.321 1.25.578 1.58 2.925 2.97 3.233l.73.724c.27.924-.63 1.702-1.64 2.28.44.375.89.732 1.31 1.136.12-.491.23-.961.29-1.356.1-.658 1.01-.962 1.53-.625 1.71 1.111 3.2 2.256 3.89 4.228.38 1.078.14 2.334-.07 3.528l.06-.029c.4-2.292 1.38-4.544 3.18-6.524.44-.474 1.35-.375 1.64.212l.14.271c1.75.403 2.82 4.389 3.63 6.266 1.03-.578 2.28-.762 3.87.17 1.89 1.107 2.66 2.168 2.89 3.05.35-.178.72-.357 1.11-.532.38-.337.79-.703 1.29-1.115.58-.466 1.55-.366 1.74.462 1.23 5.047.92 3.02 1.08 8.596l-.01.054.85.728c1.16-.199 2.55-.52 3.66-.928.47-.436.94-.811 1.39-1.156 2.01-2.351 4.99-3.787 8.68-3.899.65-.021 1.22.682 1 1.315-.34 1.023-.7 1.947-1.21 2.804.32.72.56 1.423.7 1.798.4 1.098.48 2.334.33 3.524 1.5.649 2.87 2.405 4.24 5.638.3.699-.03 1.565-.9 1.565-.49 0-.98.074-1.47.162-.24 1.048-.53 2.259-.82 3.503l.05.366c1.37-.915 2.42-2.213 3.49-3.474l.69-.795.45-.499c.36-.379.83-.354 1.21-.129.47-.087.99-.146 1.61-.175l.07.034c2.12-1.332 4.6-2.185 6.6-.142.46.47.69 1.007.82 1.561l.1-.109c.29-.374.88-.362 1.26-.162 1.64.874 3.21 1.885 4.7 2.996-.66-1.448-1.01-3.474-1.07-4.178-.09-1.26 1.66-1.294 2.05-.274.57 1.46 1 2.421 1.2 3.432.7.113 1.2.999.61 1.74l-.65.753-.12.865c-.11.479-.5.691-.91.716l-.02.037.2.05c1.29.325.76 2.281-.51 2.002.19 1.098.94 2.035 2.01 2.759.14-.554.26-1.145.47-1.756.6-1.727 1.44-2.002 2.96-2.002l.18.079.52.212.08.125.22.35c.46 3.029 1.94 4.568 1.48 7.294.19 1.182.09 2.384-.43 2.9-.94.936-3.61.953-4.81.687l-.35-.142c-.02.782-.99 1.407-1.74 1.61l-.25.034c.08.782.22 1.556.42 2.33.46.15.91.304 1.42.42 1.32.308 2.38.911 3.3 1.677.07-.508.47-.932 1-.932.84 0 2.44-.354 2.98.516 1.27 2.059 1.16 4.127 2.08 6.241.24.541.15 1.086-.37 1.423-1.57 1.02-2.98.329-4.69.142-1.32-.142-1.33-2.226 0-2.081l.18.034c-.56-.317-.86-1.178-1.02-2.16-.88-1.252-1.93-2.243-3.55-2.734l-.58-.154c.42.787 1.13 1.785.87 2.539-.14.416-.53.807-1.01.765-.39-.033-.97-.387-1.6-.907-.18.828-.41 1.51-.68 2.056l.07.287-.09.74.64-.324c.68-.362 1.58.083 1.57.898-.02.795-.04 1.515-.07 2.172 2.49.595 4.79 2.659 5.46 5.002 1.01.083 1.82.416 2.49.957.29-.25.63-.474 1.03-.674l-.41-.308c-1.39-1.024-2.79-2.089-4.04-3.291-.97-.945.47-2.339 1.48-1.473 1.34 1.165 2.97-.175 4.46-.304 1.34-.112 1.33 1.968 0 2.08-.58.05-1.13.304-1.67.537l.45.375c.54.407 1.21.998 1.92 1.481l.47-.162c2.55-.949 3.03.449 3.47 2.8.34 1.831.25 3.957-1.63 4.893-.72.362-1.56.487-2.42.545 1.34 3.812 1.29 9.753-3.93 9.529l-.75-.225-.55.895-.85.187-.64-.416-.09-.042c-.49-.175-.98-.341-1.47-.512 1.14 1.116 1.73 2.147 1.85 3.084 1.45-1.036 3.16-1.989 5.32-3.063.75-.37 1.48.096 1.56.899 1.1 11.11-6.64 11.122-8.07 5.105l-.62.546c.06 2.238-.68 3.661-3.06 6.528-.82.994-2.05-.275-1.63-1.261a29.046 29.046 0 0 1 1.89-3.757c-2.65 1.032-5.77 1.452-7.51 1.123-.66-.12-.97-.994-.63-1.527.63-.982 1.21-1.768 1.79-2.43l-1.03.358c-.71 1.003-2.06.362-1.9-.799.15-2.459.68-4.839 1.4-7.165-2.11-2.646-4.18-5.317-7.96-7.065-2.9-1.344-4.45-2.892-5.09-4.652l-.05-.008c-.36.47-1.11.645-1.56.137l-.7-.82c-.58-.216-1.15-.466-1.71-.74.04.561.06 1.169.02 1.864-.03.582-.45 1.019-1.04 1.04-5.33.171-3.45.745-7.81-2.222-1.1-.749-.06-2.551 1.05-1.797.91-1.174 1.81-2.343 2.72-3.521-1.21-2.317-1.28-5.184.67-8.496 1.12-1.918 2.6-2.185 4.52-1.531.8.27 1.48 1.056 1.89 1.776 1.78-.083 4.01-.037 6.7.146l.78-.3a.998.998 0 0 1 1.38-.541l.31-.12.52-.017c.77-.412 1.45-.765 2.06-1.065l.31-.429c-.77-1.56-1.77-3.578-2.86-5.455.07.437.13.92.21 1.453.07.441-.03.948-.48 1.173l-.48.233c-.31.72-.7 1.519-1.23 2.513-.54 1.04-2.27.321-1.9-.799.18-.528.34-.973.51-1.423-.29-.137-.6-.295-1.07-.524-.38-.191-.64-.77-.48-1.173.78-1.528 1.31-3.125 1.71-4.769l.17-.645c-.45.845-1.58.454-1.88-.279l-.22-.532c-.35.274-.66.732-.89 1.573-.26.936-1.83 1.057-2.01 0-.14-.849-.27-1.706-.43-2.555-.51.574-1.13 1.244-1.99 1.976-.63.529-1.86.25-1.78-.736.13-1.561.4-6.013.98-9.691-1.63-.499-2.83-1.09-3.53-1.789-1.79 1.14-3.59 2.334-5.5 3.121-.64.266-1.32-.392-1.32-1.003v-1.04l.52-.899c1.61-.741 3.85-2.014 5.53-2.185.08-.803.51-1.677 1.38-2.642l.9-.516c.97.038 1.75.029 2.44 0 .28-.191.6-.42.99-.736.42-.346 1.13-.317 1.51.05.13-.475-.87-1.207-2.78-2.152-.4.662-.9 1.253-1.6 1.673-1.75 1.049-3.47.254-4.9-1.028l-.42.358c-.71-.57-1.38-1.007-2.03-1.373l-.55.811.02.042-.03.553c1.13 2.984-.39 7.798-5.9 10.087-.74.303-1.51-.583-1.28-1.278.31-.924.61-1.847.92-2.763l-.44-.224-.52-.899.11-.653-.07-.113c-.3-.715-.5-1.473-.63-2.243l-.73-.149c-.72-.183-1.05-1.224-.46-1.74l.99-.719c.03-1.498.3-2.988.67-4.411h-.49c-1.31-.27-2.41-.828-3.44-1.506-1.53.041-3.06-1.12-3.35-2.759l-.62-.574-.16-.354c-1.83.05-3.66.096-5.49.142l-.79.47a12.963 12.963 0 0 0 3.54 3.308c1.13.711.12 2.463-1.05 1.797-2.62-1.493-5.44-2.484-8.35-3.112l-.77.096c-.39-.134-.73-.325-1.11-.471-.98-.149-1.97-.278-2.96-.349-1.77-.121-3.56-.004-5.29.449-3.39.903-.47 3.62 1.01 4.873 1.02.865-.46 2.334-1.48 1.473-3.17-2.688-5.05-6.6-.08-8.351 1.09-.383 2.26-.57 3.45-.666-.7-.408-1.42-.77-2.11-1.223-1.12-.733-.08-2.534 1.05-1.798 1.52.99 3.07 1.839 4.66 2.601-.42-.774-.76-1.602-.93-2.538-.25-1.378-.1-2.772-.01-4.17-1.07.803-1.17.712-3.21.845-.44.029-.91-.337-1-.766-.1-.453-.13-.798-.18-1.19-.44.238-.89.479-1.41.774-.73.412-1.88-.283-1.53-1.173 1.22-3.167 1.43-3.757 2.31-5.609-.16-.366-.27-.807-.27-1.398l.16-.52c-.43.175-.93.291-1.44.37-.63 1.877-1.25 3.749-1.88 5.626-.38 1.152-1.94.886-2.04-.275l-.07-.624-.07.108-.89.433c0 .366-.01.716-.01 1.123 0 .749-.9 1.353-1.57.899-4.21-2.879-5.2-4.128-5.59-8.559-.84.691-2.08-.304-3.25-1.202l-.17.045c-.92 1.12-1.86 1.889-2.95 2.459v.117c.02.77-.91 1.323-1.57.899l-.33-.233c-.97.324-2.08.632-3.4.957l.06.183c.24.732-.54 1.523-1.28 1.277a6.09 6.09 0 0 0-1.21-.266c.27 1.123.52 2.521.44 3.424-.07.887-1.08 1.398-1.77.737-3.73-3.558-2.69-1.985-4.43-6.703-.27-.733.56-1.519 1.28-1.278Zm-42.64 35.264c1.32-.025 2.65.042 3.87.562-.26-.687-.53-1.373-.91-2.052-.24-.428-.14-.807.09-1.098l-.56-.466h-.71c-.46 0-.79-.341-.93-.757a4.65 4.65 0 0 0-.8 1.814c-.16.707-.14 1.365-.05 1.997Zm6.4-2.118c1.56.583 3.11 1.115 4.62 1.71-.39-.695-.67-1.394-.79-2.084l-.66-.662-.85.196c-.51-.146-1.07-.57-1.61-1.082-.42-.225-.86-.412-1.3-.579l-.04.059a1.01 1.01 0 0 1-.41 1.36c.36.35.71.695 1.04 1.082Zm-57.66 25.835c.41-1.115 1.95-.915 2.04.275.08.965.38 1.872.72 2.771.53-.736 1.07-1.465 1.51-2.255.39-.703 1.39-.645 1.79 0 1.46 2.342 2.37 5.193 2.85 8.047l.12.062c1.1 1.336 3.05 2.643 3.79 4.236.66 1.44-.19 3.4-.37 4.86v2.255c1.33-.761 2.83-1.602 3.16-2.567.32-.936 1.74-1.048 2.01 0 .2.778.37 1.627.5 2.497 1.94-2.135 3.68-3.25 5.17-3.396l.06-.199c.04-.587-.09-1.232-.26-1.889-.75.079-1.64.116-2.67.129l-.27.141-1.01-.266-.14-.167c-.57-.67-.23-1.776.74-1.776h.72l.02-.317a29.461 29.461 0 0 1-5.18-.761c-.94-.221-.95-1.423-.25-1.902a42.363 42.363 0 0 0 3.71-2.733l.23-.183-1.06.657c-.74.275-1.52-.562-1.28-1.277.14-.429 1.45-2.776.7-2.11-1 .891-2.48-.578-1.47-1.473.92-.824 1.01-.994 1.96-1.452.41-.196.75-.129 1.1.083.75-.041 1.49-.121 2.24-.233l-.4-.782c.12-1.848.63-3.687 1.07-5.476l.7-.666c.21-.491.45-.986.71-1.473-.68-.645-.2-2.03.91-1.71l.2.067c.91-1.14 2.03-1.972 3.31-2.118l.1-.029.01.012.27-.05c.52 0 .81.342.93.733.54-.358 1.22-.6 1.92-.695.61-.088 1.1.204 1.25.707 1.23-.308 2.57-.537 3.74-.229-.21-.953-.28-2.101-.44-3.67-.28-.441-.52-.903-.85-1.31-.66-.82-.05-1.943 1.01-1.74.64.121 1.19.25 1.68.387.03-.507.06-1.094.09-1.743a63.352 63.352 0 0 1-.97-3.608c-.19-.803.75-1.751 1.53-1.173 1.17.861 2.25 1.694 3.3 2.547l.27-.962c-.06-1.24.08-2.45.57-3.561-.01-1.161.25-2.588.58-4.681.12-.803 1.23-.97 1.74-.462.49.495.99.99 1.48 1.485.51-.254 1.02-.532 1.52-.678.4-1.872.92-3.716 1.5-5.547.38-1.194 1.9-.848 2.04.275l.23 1.069.39.159c.89.882 1.76 1.76 2.64 2.638.73-.508 1.53-.978 2.25-1.494l.06-.063.15-.087.53-.154.3-.724c.78-.786 1.64-1.51 1.82-2.659.21-1.323 2.21-.761 2 .549l-.12.429c1.02-.27 2.06-.474 3.01-.666.69-.137 1.6.483 1.28 1.278-.48 1.181-.99 1.976-2.2 2.459-1.18.474-2.51-.142-3.73.349-.39.154-.67.034-.88-.166l-.16.054 3.48 3.474c.27-.362.62-.707 1.11-1.011a3.703 3.703 0 0 1 1.72-.541c-.26-.753-.46-1.51-.31-2.047.28-1.028 1.05-1.227 1.88-1.132l-.01-.066c-.28-1.935-.78-3.828-.87-5.809-.02-.632.7-1.24 1.32-1.003l.39.183c.14-.503.27-.998.41-1.535.2-.761 1.19-1.011 1.74-.462.79.787 1.57 1.573 2.36 2.364-.06-1.17-.25-2.322-.87-3.183-.54-.741.35-1.806 1.17-1.528 3.17 1.061 6.27 2.143 8.79 4.428.99.903-.48 2.371-1.47 1.473-1.69-1.536-3.71-2.435-5.81-3.192.31 1.502.3 3.154.3 4.536 0 .499-.35.84-.76.961.5.462 1 .928 1.5 1.423.95.948-.52 2.417-1.48 1.473-1.41-1.402-2.86-2.647-4.5-3.662-.28 1.494-.38 3 0 4.731l.04.275c.03.599-.43.932-.93.982l-.11.058-.57.395.22.799c1.96-.749 3.83-.495 4.33 2.493.53 3.266-1.59 5.13-4.26 6.058.84.928-.53 2.247-1.5 1.394-.35-.308-.76-.504-1.14-.766-1.18.146-2.34.15-3.33.029-1.14-.141-1.24-1.647-.39-1.959-.43-.163-.87-.308-1.3-.462l.51.857c.61 1.19-1.18 2.243-1.8 1.048-.29-.574-.62-1.144-.98-1.706.62 1.968 1.18 3.945 2.62 5.647.67.803.04 1.96-1.02 1.739l-.31-.104-.73.104c-1.09-.221-2.1-.595-3.06-1.061-.12 1.627-.19 3.22.18 4.985.22 1.044-.94 1.702-1.74 1.011-3.71-3.212-3.51-7.419-5.36-11.655-.31-.703.04-1.556.89-1.564l.46-.017c-.11-.828-.15-1.685-.03-2.601.09-.69.28-1.26.51-1.772l-.66.016c-.13.762-.22 1.519-.28 2.293-.06.878-1.1 1.411-1.77.737-.52-.52-1.04-1.041-1.57-1.561l-.48.387c.72 1.777 1.48 3.599 2.64 5.114.78 1.019-.79 1.918-1.63 1.261-1.08-.841-1.86-1.523-2.46-2.16l-.01.038c.09 1.61.66 3.27 1.48 4.743.56.724 1.1 1.49 1.58 2.359.55.999-.85 2.193-1.64 1.261l-.15-.216-.01.004-.1-.15c-.47-.607-.91-1.269-1.32-1.968-.3-.391-.63-.745-.95-1.094-.31.586-1.07.836-1.63.303l-.76-.64c.43 1.123.99 2.222 1.63 3.308.48.586.99 1.269 1.65 2.101.69.89-.16 2.251-1.27 1.635-1.54-.865-2.6-1.469-3.34-2.001.71 1.581 1.42 3.158 2.53 4.527.7.878-.18 2.272-1.27 1.635-.8-.474-1.41-.895-1.93-1.302l.23.919c.46 1.028-.71 1.852-1.43 1.373l-.5.192c-.72-.042-1.4-.192-2.09-.362l.35.799c.79.253 1.59.478 2.34.844 1.32.645 1.48 1.54 1.48 2.88 0 .549-.48 1.069-1.04 1.04l-.56-.096c.55 1.086 1.14 2.68-.86 2.33-1.31-.229-2.74-1.156-3.85-1.839l-.33-.262-.59-.27c-.48-.579-.36-1.403-.04-2.222-.52-.308-1.04-.612-1.58-.903-.51-.275-.64-.945-.38-1.423l.39-.604-.16.092c-1.37.27-2.9-.691-4.3-1.436l-.33.616c.48.121.92.304 1.22.658.59.694.71 1.889 1.49 2.38 1.12.719.08 2.521-1.06 1.797-1.34-.857-1.42-2.172-2.56-2.717-.37 1.477.01 2.771.85 3.866l.31.07.31.113c.54-.063 1.08-.129 1.62-.15.57-.025 1.04.491 1.04 1.04v2.081c0 .803-.88 1.277-1.57.898l-.54-.328c-1.3.628-2.69 1.406-3.97 1.876.33 1.427-1.79 3.092-3.64 4.307 1.19.183 2.38.291 3.54.274.18-.694 1.1-.998 1.71-.482l.17.141.1.175c.98-.15 1.92-.42 2.83-.811.14-.45.26-.858.37-1.124.36-.949 1.57-.87 1.93-.183.5-.387.99-.816 1.46-1.319.98-.92 2.38.487 1.47 1.473a12.793 12.793 0 0 1-3.85 2.838c-.89 1.772-1.79 2.733-3.21 3.208.19 1.019.21 1.881.08 2.642l.9.454c.56.815 1.1 1.364 1.65 1.793.47-.936 1.06-1.723 1.88-1.885 1.87-.374 4.56 3.1 5.67 4.04.81.695-.05 2.014-1.01 1.74-1.95-.558-3.76-.283-5.63-.562-.16.378-.31.765-.48 1.123-.38.795-1.74.612-1.9-.249a23.77 23.77 0 0 0-.62-2.755l-.2-.483-.47-.665c-1.79 1.622-3.65 3.158-5.49 4.722l-.08.075.06.013c.48.274.93.549 1.4.823 1.25-.686 2.29-1.319 2.33-1.547.07-.425.58-.795 1-.762 2.01.154 3.55 5.293 3.2 6.903-.15.699-.96.903-1.53.62-1.83-.89-3.53-1.918-5.26-2.946.26 2.23-1.38 2.206-4.51 2.971-1.3.321-1.86-1.685-.55-2.005l.27-.059-.07-.944c-2.07 1.277-4.77 1.256-7.21.965-1.32-.158-1.33-2.238 0-2.08 2.13.258 4.31.412 6.25-.67 1.85-1.028 1.85-3.383 1.5-5.414-1.23.987-2.81 1.731-3.89 2.659-.67.57-1.78.221-1.78-.736v-3.878c-.16-.441-.32-1.041-.44-1.702-.57.179-1.14.312-1.64.379-.57.074-1.04-.529-1.04-1.041v-3.12c-.07-3.084-.82-6.508-2.21-9.387-.47.69-.89 1.406-1.38 2.08.22.682.41 1.373.47 2.105.04.566-.51 1.041-1.05 1.041h-2.08c-.8 0-1.27-.878-.89-1.565.38-.699.86-1.327 1.31-1.98-.17-.475-.34-.953-.53-1.428-.08.429-.36.82-.93.812-2.87-.038-.39-3.262.04-4.436Z"/>
    <path d="M1726.57 634.23c.86-.345 1.76-.191 2.62.063.36.108.73.274 1.11.308-.2-.017-.22-1.773-.29-2.214l.05-.008-.09-.267c-.14-1.16 1.87-1.431 2.04-.274l.05.287c.09.603 1.6 1.989 1.93 2.584.65 1.173-1.14 2.222-1.79 1.048l-.19-.262c-.19.512-.48.941-1.07 1.095-1.32.341-2.58-.849-3.81-.354-1.25.499-1.79-1.515-.56-2.006Zm-28.34-10.298c2.5-1.148 5.09-1.177 7.81-1.182.56 0 1.04.475 1.04 1.041v4.161c0 .798-.72 1.061-1.32.911-.88 1.777-3.82 3.204-5.45 2.068-1.09-.766-.05-2.567 1.05-1.798.52.366 1.54-.158 2.15-.753-1.51-.732-3.05-1.381-4.76-1.469-.57-.029-1.04-.449-1.04-1.04v-1.04l.52-.899ZM479.66 638.695l-.131-.52c-.893.195-1.796.304-2.815.308l-.075-.013c.617.982 1.23 1.956 1.849 2.925.4-.886.782-1.797 1.172-2.7Zm28.233 44.593c-.241-1.482-.46-2.959-.697-4.44a688.165 688.165 0 0 1-7.179 3.15c3.122 1.298 6.244 2.596 9.367 3.886-.733-.541-1.289-1.377-1.491-2.596Zm35.116-9.745c1.767-.346 3.403-.816 4.978-1.332a834.28 834.28 0 0 1-4.91-4.302c-.221 1.785-.42 3.578-.592 5.376l.27.362.254-.104Zm62.79-41.601c-1.472.928-2.996 1.814-4.599 2.43a29.864 29.864 0 0 1 1.864 3.291c.938-1.901 1.939-3.774 2.735-5.721Zm-9.74 3.008-.86-.844-.517-.812-.012-.021c-.847.15-1.692.312-2.537.454l.347.324.297.529c1.062.487 2.1 1.04 3.118 1.635.372-.137.769-.146 1.157-.096-.296-.407-.66-.782-.993-1.169Zm-12.751-15.732a45.588 45.588 0 0 1 3.026 2.48l.44-.005c-3.665-5.018-3.476-6.969-3.466-2.475Zm-.543-13.573s-.636-.637-1.573-1.556a38.26 38.26 0 0 1-4.789.545c-.403.42-.801.84-1.199 1.26 2.551.167 5.099.163 7.561-.249Zm-21.379-4.477c-.789-.304-1.809-1.278-2.862-2.618l-.751.887-.212.15-.2.133-.762.341-.473.071-.114-.005-1.075-.324c-.524-.345-1.032-.645-1.548-.97 1.153 1.486 2.201 3.034 3.226 4.598 1.096-.74 2.486-1.057 3.841-.724.31-.424.751-.753 1.284-.94.578-.2 1.132-.312 1.696-.466l.067-.608c-.537.479-1.459.716-2.117.475Zm-12.548.774a77.56 77.56 0 0 0-.883-1.286c-.852 1.51-1.88 2.992-2.843 4.29 1.275 1.065 2.549 2.126 3.778 3.233l.983-.25.165-.004a42.488 42.488 0 0 0-1.82-2.247c-1.093-1.244-.626-3.075.62-3.736Zm-6.389-2.139c-.979-.624-1.87-1.344-2.776-2.043.01 1.556-1.692 2.838-3.468 2.043-1.343-.591-2.226-1.498-2.853-2.572l-.253.025c1.71 2.048 3.488 4.028 5.401 5.88a5.197 5.197 0 0 1 2.318-.441c.327-.479.942-1.677 1.657-2.88l-.026-.012Zm-35.224 6.508c-.456-.312-.927-.612-1.389-.912.374 3.017.761 5.909.623 8.855a24.855 24.855 0 0 1 3.005-1.536l-2.197-4.389c-.351-.704-.299-1.411-.042-2.018Zm-10.153 62.813a86.012 86.012 0 0 0 4.091-.949 65.614 65.614 0 0 1-1.42-1.872 96.944 96.944 0 0 0-5.257-2.118 215.82 215.82 0 0 0 2.586 4.939Zm16.943-44.227a47.27 47.27 0 0 1-.73-4.539l-.758-1.506h-3.239c-.416 0-.759-.104-1.063-.258-.525.345-1.039.707-1.539 1.081 2.299 1.906 4.787 3.604 7.329 5.222Zm-22.189-6.545c-1.637-2.034-4.863-2.48-7.7-2.584.84 2.31 2.24 4.448 2.528 6.982.146 1.274-1.174 2.343-2.342 2.343h-3.902v7.927l.159-.046.051-.009a1.839 1.839 0 0 1 1.432.009l.056-.129-.137-.733c-.089-.99.506-1.706 1.291-2.055l.127-.304c.992-2.188 3.25-2.646 5.241-2.051.203-.375.481-.703.907-.878.524-1.835 1.322-3.612 2.12-5.255l.298-.387c-.733-.87-.651-1.993-.129-2.83Zm132.194 29.364c0 .587.005 1.157 0 1.723v5.638c.457.428.909.869 1.351 1.331 1.683-2.413 3.397-5.867 4.714-8.655-2.049-.199-3.984-1.106-6.065-2.272v2.235Zm-167.184 10.223c2.16.891 2.756 1.34 4.249 3.275 1.187 1.539 1.829 2.505 2.197 3.046l.325-.121a20.38 20.38 0 0 1-.368-3.94v-6.242c0-1.473 1.496-2.455 2.796-2.309-.851-3.196-1.73-6.387-2.713-9.554-.694-2.238 1.625-3.32 3.304-2.55l-.182-.57c-.61-2.214 1.974-4.511 3.693-5.405l.062-.021c.541-.412 1.271-.599 1.975-.516 1.147-.104 2.342.037 3.553.191V622.75c0-1.277 1.065-2.338 2.342-2.338h3.321c-.837-2.326-2.248-4.473-2.541-7.024-.145-1.26 1.174-2.355 2.342-2.338 4.715.062 9.907.324 13.606 3.603l.273.296c1.115-1.016 3.334-.962 3.989.94.359 1.049.793 2.056 1.229 3.067l.592-.279c2.037-5.929.195-11.692-.177-17.771-.114-1.835 2.054-2.834 3.522-2.018 1.58.865 3.088 1.839 4.575 2.837-.208-.632-.436-1.252-.634-1.889-1.517-.815-1.491-3.229.044-4.082 1.156-2.18 4.122-3.316 6.563-2.009.598.316 1.164.682 1.753 1.011.97-.121 1.941-.233 2.908-.371.243-1.656 2.529-2.783 3.997-1.373l.743.679.792-.121c-.823-3.791-2.011-7.511-2.41-11.389-.234-2.271 2.609-2.771 3.997-1.651 1.89 1.514 4.81 3.441 7.462 5.617l.87.016c.564.142 1.094.292 1.639.441.288-2.076.413-3.99.088-4.943l-.882-.948c-1.889-2.018.47-4.781 2.836-3.67.906.42 1.538 1.123 1.99 1.997.961 1.04 1.955 2.151 2.957 3.316.232-.403.539-.77 1.024-1.053 4.073-2.384 6.036 5.46 6.935 10.981.41.216.824.45 1.239.683-.464-3.82-.161-7.64 1.148-11.406.801-2.305 3.658-2.142 4.517 0 1.359 3.396 6.196 9.221 6.676 14.231 1.758-2.235 4.4.366 6.494 4.373.923-.029 1.875-.033 2.843-.038.455-.457.927-.894 1.393-1.344-1.313-1.273-2.351-2.276-2.588-2.467-2.346-1.906.988-5.193 3.311-3.304.621.504 1.765 1.319 3.092 2.33a60.814 60.814 0 0 1 3.437-2.696c1.48-1.078 3.522.375 3.522 2.018v6.242l-.164.828c1.496 2.03 2.231 4.094 1.158 5.879-1.532 2.551-4.817 3.37-8.478 3.437h20.753a2.36 2.36 0 0 1 2.341 2.338v4.199c2.309 1.851 4.34 3.94 5.772 6.262 1.841.928 3.197 2.33 3.511 4.523.322 1.652 1.025 3.512 1.626 5.372 1.343-2.306 2.55-4.769 3.826-6.404 1.413-1.823 4.776.15 3.914 2.272-1.384 3.408-3.239 6.299-5.358 8.958-.564.891-1.159 1.739-1.839 2.488-.419.845-1.143 1.552-2.268 2.102-2.094 2.113-4.33 4.173-6.587 6.262.951.545 1.943 1.015 2.907 1.539 1.025-.798 2.05-1.593 3.122-2.326 2.69-1.855 5.744-2.75 8.919-3.087-.174-1.644-.374-3.129-.374-4.073 0-1.819 1.977-2.859 3.522-2.019 2.982 2.222 6.356 3.263 10.127 3.121 2.061-1.094 4.37 1.107 3.201 3.2-1.66 2.971-4.1 10.015-7.562 14.405 3.294 4.198 5.977 8.7 7.562 11.318 1.225 2.018-1.197 4.389-3.201 3.199-3.966-2.338-7.461-5.022-10.814-7.959.585 2.492 1.155 4.984 1.573 7.51 4.382 4.785 8.923 9.437 13.732 13.848 4.51 4.127-2.057 10.423-6.621 6.615a1951.926 1951.926 0 0 1-14.912-12.536l.414.628c3.06 4.793-3.481 8.821-7.356 5.667-5.867-4.768-11.205-10.015-16.267-15.52-.99-.886-1.995-1.764-2.982-2.655l-.335-.1c3.909 4.536 7.885 9.009 12.062 13.315 1.793 1.844-.631 5.289-2.836 3.67-3.289-2.405-6.507-4.897-9.697-7.423-.3 1.411-1.376 2.563-2.74 3.179 1.961 2.28 3.951 4.531 5.907 6.816.984 1.14.766 2.388.021 3.154 1.942 2.267-1.065 5.242-3.332 3.27-9.63-8.363-19.487-16.444-29.463-24.37-.442.312-.914.599-1.377.894 8.533 6.45 16.785 13.249 24.785 20.172 2.02 1.74-.616 5.106-2.836 3.67-9.767-6.308-18.967-13.34-27.819-20.8-2 .815-4.171 1.456-6.455 1.976l.013.021c1.497 2.176-2.03 4.922-3.677 2.834l-.198-.254c-.194.624-.467 1.169-.844 1.606 6.324 4.781 12.777 9.399 19.488 13.702 2.575 1.643.346 5.309-2.361 4.036-11.68-5.48-22.773-13.007-34.059-20.076-.569 1.485-2.705 2.488-3.88.986l-.362-.475-.003.004-.023-.033c-.385-.495-.758-.994-1.138-1.489-.539 1.568-1.072 3.137-1.667 4.706-.884 2.326-3.706 3.661-5.981 3.245 2.965 1.207 5.941 2.393 8.953 3.479 5.636 2.034 3.204 11.08-2.49 9.029-10.552-3.807-20.667-8.676-31.22-12.483-2.79-1.007-3.829-3.674-3.117-5.917l-.257-.337-.701.978c-2.615 3.433-8.829 2.746-8.728-2.359.008-.425.034-.837.047-1.257l-.507-.682c-.558-1.211-1.083-2.434-1.613-3.653-.814.865-1.64 1.705-2.422 2.658-3.357 4.095-10.596-1.473-7.356-5.667l.724-.99c-1.854.865-3.537 1.685-4.864 2.247-1.571.67-3.522-.075-3.522-2.018v-9.362c0-1.382 1.527-2.851 2.963-2.26Zm-6.244-21.845c.917.225 1.833.441 2.771.521l.12.004-.138-.233c-1.319-2.151-3.254-3.966-5.029-5.742-2.137-2.131 1.174-5.443 3.31-3.304 2.542 2.538 5.321 5.214 6.696 8.592.732 1.798.104 3.612-1.422 4.71-1.997 1.44-5.44.475-7.55-.029-2.937-.707-1.693-5.222 1.242-4.519Zm110.063-62.209c.651-.691.555-.595 0 0Z"/>
    <path d="M599.825 609.227h-1.041c-.902 0-1.384-1.136-.737-1.776.417-.408.794-.737 1.184-1.099.439.35.87.67 1.33 1.099.669.632.152 1.776-.736 1.776Z"/>
    <path d="m550.122 581.374-.205.187c.636.937.997.641.997-2.5 0-1.024 1.428-1.432 1.938-.525l.238.421c.022-.371.183-.737.67-.899a24.525 24.525 0 0 1 1.912-.545l.106-.237c-2.271-.716-4.74-1.02-7.456-.82 1.348 1.981 1.121 1.619 2.067 3.907l-.267 1.011Zm48.519 20.047c.176.292.424.691.704 1.111 1.153.425 2.234.837 3.182 1.22-.415.249-.855.578-1.302.919.881.687 1.858.99 2.806.179l.281-.341c-.575-.246-1.1-.487-1.785-.757.859-.521 1.66-.853 2.421-.966.064-1.04-.223-2.193-.618-3.195-1.05 1.052-2.717 2.592-3.905 2.405-.421-.067-.803-.587-.765-1.003.138-1.481 1.327-3.183 2.407-4.431a8.642 8.642 0 0 0-2.28 1.443v.054c-.24.712-.831 1.303-1.602 1.794l-.557 1.082c.392-.025.808.141 1.013.486Zm9.55 19.54-.004-.016c-.203-.662.376-1.286 1.004-1.299.143-.382.313-.757.585-1.102.943-1.186 2.323-1.844 3.794-2.281-.274-.224-.482-.57-.656-.948l-.458-.362a14.476 14.476 0 0 1-.656-1.373c-.925 1.052-1.884 2.064-3.125 2.788-.486.282-.914.087-1.207-.234-.591 3.017-.764 5.485.723 4.827Zm5.019-1.856c.511.833.938 1.511 1.304 2.089.438-.803 1.073-2.022 2.265-3.341l.711-.291c-1.551.233-3.272.507-4.698 1.248l.418.295Zm5.346-4.676.594.045c.432-.495.902-.94 1.393-1.381l.222-.554c-1.523-1.951-2.984-2.463-4.394-1.602l-.27.675c.678.944 1.262 2.176 1.709 3.154l.746-.337Zm2.161 6.807a3.671 3.671 0 0 0-.042-1.332c-.198-.94 1.01-1.856 1.74-1.011l.354.516c-.027-.745-.023-1.464-.027-2.201-.76.416-1.789.424-2.768.387l-.681.691-.551.237c.679.894 1.354 1.789 1.975 2.713Zm-3.045 20.892a12.057 12.057 0 0 1-1.148 2.317c2.87.396 6.185-.582 10.164-2.471-2.805.832-6.691-1.873-9.016.154Zm2.966 11.829c.419-.016.936.325 1.003.766 1.041 1.269 2.085 2.542 3.125 3.82l.294-.824c-1.83-2.601-2.056-5.755-1.263-10.278.091-.516.644-.799 1.137-.74l.115-.225-.764-.791c-3.726 1.977-5.075 2.659-6.732 3.25 1.142 1.261 2.181 2.896 3.085 5.022Zm20.12 7.253c.119-.391.145-.787.156-1.186l-.78.137c-1.202-.17-3.127-.266-4.83-.749.392 1.623 1.01 3.554 2.718 4.111 1.421.462 2.404-1.244 2.736-2.313Zm3.415-9.009c.006-.491-.074-.982-.178-1.464-1.021.682-2.04 1.356-3.06 2.039l-.154.033c.117.412.21.869.296 1.344 1.624-.038 3.074-.42 3.096-1.952Zm-15.21-30.491.317.133-.211-.22c-.375.07-.765.008-1.004-.429-.818-1.498-1.972-2.671-3.286-3.678-.022 2.313.03 4.785.919 6.791.444.994-.799 2.226-1.634 1.26l-.152-.22-.009.008-.015-.046c-.564-.72-.988-1.527-1.388-2.346l-.335.661.411.683.116.574.924.466a41.796 41.796 0 0 1 1.838 3.562l.419-.005-.011-.903-.021-.05v-5.201c0-.57.473-1.04 1.041-1.04h2.081Zm-4.782-9-.756.258.564.62.073.928.223.054c.379.208.665.524 1.021.766.88.195 1.761.424 2.639.64l.262-.586a36.981 36.981 0 0 0-4.026-2.68Zm-96.925-33.612c2.208.737 3.26 1.045 3.577.591l.096-.57c-.041-.587-.322-1.498-.79-2.904-.316-.949.767-1.523 1.528-1.174 1.188.545 9.223 5.201 4.982 1.635-.834-.703.064-1.98 1.013-1.739.698.179 1.618.57 2.532.928.899-.911 1.8-1.827 2.699-2.742.645-.803 1.707-.046 1.689.811l.825.229.027.029c4.48-.42 7.428-.104 10.843 1.29l.605-.545c.993-.162 2.095-.403 3.161-.408l.612-.644-.603.644c.626 0 1.244.063 1.81.321 1.246.578 1.577 2.925 2.971 3.233l.728.724c.265.924-.637 1.702-1.639 2.28.438.375.888.732 1.303 1.136.122-.491.234-.961.296-1.356.099-.658 1.01-.962 1.528-.625 1.712 1.111 3.195 2.256 3.891 4.228.38 1.078.135 2.334-.068 3.528l.057-.029c.401-2.292 1.382-4.544 3.183-6.524.434-.474 1.342-.375 1.635.212l.136.271c1.753.403 2.825 4.389 3.634 6.266 1.031-.578 2.278-.762 3.875.17 1.888 1.107 2.66 2.168 2.89 3.05.343-.178.715-.357 1.109-.532.372-.337.791-.703 1.29-1.115.573-.466 1.542-.366 1.74.462 1.222 5.047.919 3.02 1.078 8.596l-.011.054.846.728c1.164-.199 2.556-.52 3.663-.928.473-.436.938-.811 1.389-1.156 2.01-2.351 4.993-3.787 8.683-3.899.651-.021 1.216.682 1.003 1.315-.34 1.023-.7 1.947-1.217 2.804.319.72.565 1.423.701 1.798.399 1.098.482 2.334.327 3.524 1.501.649 2.872 2.405 4.246 5.638.297.699-.034 1.565-.898 1.565-.497 0-.987.074-1.471.162-.239 1.048-.535 2.259-.82 3.503l.05.366c1.37-.915 2.417-2.213 3.485-3.474l.698-.795.443-.499c.363-.379.835-.354 1.214-.129.465-.087.99-.146 1.604-.175l.075.034c2.12-1.332 4.597-2.185 6.595-.142.466.47.693 1.007.828 1.561l.091-.109c.291-.374.884-.362 1.262-.162a37.52 37.52 0 0 1 4.704 2.996c-.657-1.448-1.013-3.474-1.067-4.178-.095-1.26 1.651-1.294 2.044-.274.569 1.46 1 2.421 1.199 3.432.699.113 1.198.999.616 1.74l-.652.753-.122.865c-.106.479-.498.691-.914.716l-.016.037.203.05c1.286.325.755 2.281-.515 2.002.195 1.098.944 2.035 2.013 2.759.138-.554.256-1.145.47-1.756.603-1.727 1.439-2.002 2.959-2.002l.182.079.517.212.08.125.224.35c.454 3.029 1.938 4.568 1.476 7.294.194 1.182.088 2.384-.43 2.9-.937.936-3.605.953-4.812.687l-.35-.142c-.017.782-.983 1.407-1.739 1.61l-.251.034c.088.782.22 1.556.42 2.33.46.15.912.304 1.421.42 1.324.308 2.382.911 3.306 1.677.063-.508.471-.932.996-.932.836 0 2.443-.354 2.979.516 1.274 2.059 1.166 4.127 2.082 6.241.237.541.148 1.086-.373 1.423-1.567 1.02-2.979.329-4.688.142-1.318-.142-1.333-2.226 0-2.081l.181.034c-.558-.317-.864-1.178-1.024-2.16-.872-1.252-1.929-2.243-3.545-2.734l-.579-.154c.413.787 1.128 1.785.865 2.539-.141.416-.525.807-1.003.765-.397-.033-.979-.387-1.6-.907-.182.828-.41 1.51-.683 2.056l.066.287-.084.74.637-.324c.678-.362 1.582.083 1.566.898a77.81 77.81 0 0 1-.066 2.172c2.49.595 4.788 2.659 5.461 5.002 1.005.083 1.821.416 2.485.957a5.06 5.06 0 0 1 1.029-.674l-.402-.308c-1.391-1.024-2.794-2.089-4.04-3.291-.974-.945.468-2.339 1.473-1.473 1.345 1.165 2.971-.175 4.467-.304 1.338-.112 1.326 1.968 0 2.08-.579.05-1.129.304-1.677.537l.454.375c.537.407 1.214.998 1.924 1.481l.461-.162c2.555-.949 3.039.449 3.477 2.8.341 1.831.243 3.957-1.628 4.893-.72.362-1.563.487-2.428.545 1.345 3.812 1.293 9.753-3.925 9.529l-.748-.225-.55.895-.858.187-.631-.416-.097-.042c-.49-.175-.979-.341-1.467-.512 1.14 1.116 1.725 2.147 1.847 3.084 1.454-1.036 3.161-1.989 5.32-3.063.748-.37 1.487.096 1.566.899 1.095 11.11-6.647 11.122-8.076 5.105l-.615.546c.062 2.238-.683 3.661-3.06 6.528-.826.994-2.053-.275-1.634-1.261a29.178 29.178 0 0 1 1.889-3.757c-2.648 1.032-5.77 1.452-7.512 1.123-.65-.12-.965-.994-.621-1.527.629-.982 1.207-1.768 1.786-2.43l-1.032.358c-.712 1.003-2.061.362-1.9-.799.151-2.459.68-4.839 1.406-7.165-2.113-2.646-4.183-5.317-7.964-7.065-2.896-1.344-4.449-2.892-5.086-4.652l-.051-.008c-.364.47-1.118.645-1.567.137l-.693-.82a17.251 17.251 0 0 1-1.71-.74c.039.561.057 1.169.018 1.864-.033.582-.449 1.019-1.041 1.04-5.335.171-3.445.745-7.81-2.222-1.102-.749-.062-2.551 1.051-1.797l2.717-3.521c-1.208-2.317-1.274-5.184.669-8.496 1.123-1.918 2.601-2.185 4.527-1.531.796.27 1.472 1.056 1.888 1.776 1.774-.083 4.005-.037 6.699.146l.779-.3a.994.994 0 0 1 1.377-.541l.314-.12.516-.017a76.768 76.768 0 0 1 2.06-1.065l.309-.429c-.769-1.56-1.771-3.578-2.852-5.455.061.437.128.92.206 1.453.065.441-.029.948-.478 1.173l-.484.233c-.306.72-.698 1.519-1.225 2.513-.548 1.04-2.27.321-1.9-.799.172-.528.338-.973.505-1.423-.291-.137-.602-.295-1.068-.524-.379-.191-.644-.77-.478-1.173.78-1.528 1.31-3.125 1.71-4.769l.163-.645c-.45.845-1.579.454-1.873-.279l-.224-.532c-.345.274-.657.732-.892 1.573-.26.936-1.826 1.057-2.006 0-.145-.849-.275-1.706-.428-2.555a19.248 19.248 0 0 1-1.995 1.976c-.623.529-1.86.25-1.777-.736.131-1.561.397-6.013.98-9.691-1.631-.499-2.826-1.09-3.531-1.789-1.791 1.14-3.594 2.334-5.498 3.121-.637.266-1.317-.392-1.317-1.003v-1.04l.515-.899c1.613-.741 3.852-2.014 5.532-2.185.08-.803.511-1.677 1.381-2.642l.897-.516c.969.038 1.75.029 2.437 0 .287-.191.604-.42.989-.736.423-.346 1.135-.317 1.516.05.13-.475-.867-1.207-2.783-2.152-.395.662-.897 1.253-1.598 1.673-1.754 1.049-3.471.254-4.901-1.028l-.416.358a14.664 14.664 0 0 0-2.031-1.373l-.553.811.018.042-.027.553c1.127 2.984-.392 7.798-5.903 10.087-.733.303-1.512-.583-1.279-1.278.307-.924.612-1.847.922-2.763l-.444-.224-.516-.899.111-.653-.073-.113c-.303-.715-.498-1.473-.631-2.243l-.724-.149c-.722-.183-1.057-1.224-.46-1.74l.982-.719c.033-1.498.302-2.988.678-4.411h-.491c-1.31-.27-2.415-.828-3.447-1.506-1.53.041-3.052-1.12-3.35-2.759l-.616-.574-.164-.354c-1.828.05-3.655.096-5.486.142l-.786.47a12.87 12.87 0 0 0 3.535 3.308c1.132.711.122 2.463-1.05 1.797-2.623-1.493-5.441-2.484-8.351-3.112l-.766.096c-.389-.134-.734-.325-1.112-.471a37.418 37.418 0 0 0-2.961-.349c-1.773-.121-3.563-.004-5.284.449-3.396.903-.479 3.62 1.004 4.873 1.026.865-.454 2.334-1.473 1.473-3.177-2.688-5.059-6.6-.083-8.351 1.084-.383 2.253-.57 3.452-.666-.704-.408-1.421-.77-2.117-1.223-1.119-.733-.077-2.534 1.05-1.798a40.17 40.17 0 0 0 4.667 2.601c-.425-.774-.768-1.602-.935-2.538-.247-1.378-.104-2.772-.012-4.17-1.063.803-1.172.712-3.204.845-.44.029-.912-.337-1.004-.766-.097-.453-.128-.798-.184-1.19-.434.238-.887.479-1.409.774-.73.412-1.875-.283-1.529-1.173 1.225-3.167 1.436-3.757 2.311-5.609-.161-.366-.267-.807-.267-1.398l.161-.52a6.638 6.638 0 0 1-1.444.37l-1.876 5.626c-.384 1.152-1.938.886-2.044-.275l-.067-.624-.076.108-.886.433c-.003.366-.012.716-.012 1.123 0 .749-.9 1.353-1.566.899-4.211-2.879-5.198-4.128-5.595-8.559-.837.691-2.078-.304-3.25-1.202l-.166.045c-.923 1.12-1.86 1.889-2.949 2.459l-.002.117c.023.77-.909 1.323-1.566.899l-.333-.233c-.97.324-2.083.632-3.399.957l.057.183c.244.732-.543 1.523-1.279 1.277a6.12 6.12 0 0 0-1.21-.266c.275 1.123.523 2.521.445 3.424-.078.887-1.081 1.398-1.777.737-3.727-3.558-2.683-1.985-4.429-6.703-.273-.733.562-1.519 1.28-1.278Zm-42.643 35.264c1.329-.025 2.652.042 3.872.562-.262-.687-.532-1.373-.907-2.052-.238-.428-.137-.807.089-1.098l-.563-.466h-.71c-.457 0-.786-.341-.924-.757a4.74 4.74 0 0 0-.803 1.814c-.159.707-.143 1.365-.054 1.997Zm6.408-2.118c1.552.583 3.106 1.115 4.617 1.71-.389-.695-.668-1.394-.787-2.084l-.664-.662-.853.196c-.511-.146-1.062-.57-1.604-1.082a11.493 11.493 0 0 0-1.304-.579l-.035.059c.26.503.07 1.098-.415 1.36.358.35.714.695 1.045 1.082Zm-57.663 25.835c.408-1.115 1.954-.915 2.044.275.073.965.38 1.872.72 2.771.525-.736 1.064-1.465 1.504-2.255.387-.703 1.395-.645 1.795 0 1.453 2.342 2.365 5.193 2.849 8.047l.113.062c1.105 1.336 3.06 2.643 3.79 4.236.66 1.44-.184 3.4-.365 4.86v2.255c1.334-.761 2.825-1.602 3.16-2.567.322-.936 1.735-1.048 2.006 0 .203.778.376 1.627.503 2.497 1.941-2.135 3.681-3.25 5.174-3.396l.057-.199c.037-.587-.088-1.232-.259-1.889-.754.079-1.646.116-2.667.129l-.269.141-1.014-.266-.143-.167c-.565-.67-.226-1.776.737-1.776h.722l.026-.317a29.565 29.565 0 0 1-5.187-.761c-.94-.221-.947-1.423-.249-1.902a42.603 42.603 0 0 0 3.716-2.733l.226-.183-1.059.657c-.738.275-1.517-.562-1.279-1.277.139-.429 1.45-2.776.699-2.11-1.002.891-2.477-.578-1.474-1.473.927-.824 1.013-.994 1.965-1.452.405-.196.749-.129 1.096.083a23.69 23.69 0 0 0 2.239-.233l-.4-.782c.127-1.848.634-3.687 1.078-5.476l.7-.666c.206-.491.441-.986.708-1.473-.681-.645-.199-2.03.912-1.71l.194.067c.913-1.14 2.03-1.972 3.315-2.118l.101-.029.001.012.275-.05c.516 0 .806.342.926.733.544-.358 1.227-.6 1.92-.695.617-.088 1.105.204 1.252.707 1.227-.308 2.567-.537 3.745-.229-.209-.953-.284-2.101-.448-3.67-.273-.441-.515-.903-.847-1.31-.659-.82-.053-1.943 1.013-1.74.642.121 1.184.25 1.676.387.035-.507.062-1.094.092-1.743a61.012 61.012 0 0 1-.966-3.608c-.19-.803.743-1.751 1.528-1.173a87.147 87.147 0 0 1 3.298 2.547l.266-.962c-.058-1.24.083-2.45.576-3.561-.007-1.161.246-2.588.576-4.681.125-.803 1.232-.97 1.74-.462l1.482 1.485c.51-.254 1.017-.532 1.518-.678.398-1.872.923-3.716 1.504-5.547.377-1.194 1.897-.848 2.044.275l.222 1.069.397.159c.881.882 1.759 1.76 2.639 2.638.725-.508 1.522-.978 2.244-1.494l.065-.063.151-.087.527-.154.302-.724c.781-.786 1.633-1.51 1.815-2.659.208-1.323 2.213-.761 2.007.549l-.129.429c1.024-.27 2.068-.474 3.012-.666.689-.137 1.601.483 1.279 1.278-.474 1.181-.985 1.976-2.191 2.459-1.184.474-2.513-.142-3.739.349-.382.154-.663.034-.879-.166l-.16.054 3.48 3.474a3.906 3.906 0 0 1 1.114-1.011 3.688 3.688 0 0 1 1.715-.541c-.259-.753-.455-1.51-.306-2.047.282-1.028 1.051-1.227 1.88-1.132l-.008-.066c-.28-1.935-.787-3.828-.868-5.809-.025-.632.691-1.24 1.317-1.003l.391.183c.137-.503.267-.998.41-1.535.2-.761 1.189-1.011 1.74-.462.785.787 1.573 1.573 2.361 2.364-.06-1.17-.25-2.322-.873-3.183-.54-.741.35-1.806 1.174-1.528 3.171 1.061 6.27 2.143 8.786 4.428.994.903-.482 2.371-1.474 1.473-1.689-1.536-3.711-2.435-5.81-3.192.317 1.502.301 3.154.303 4.536 0 .499-.345.84-.759.961.5.462.998.928 1.496 1.423.951.948-.521 2.417-1.474 1.473-1.408-1.402-2.865-2.647-4.499-3.662-.288 1.494-.387 3-.005 4.731l.038.275c.034.599-.425.932-.927.982l-.114.058-.567.395.224.799c1.959-.749 3.832-.495 4.323 2.493.534 3.266-1.585 5.13-4.251 6.058.835.928-.532 2.247-1.507 1.394-.35-.308-.76-.504-1.139-.766-1.177.146-2.337.15-3.327.029-1.141-.141-1.24-1.647-.392-1.959-.429-.163-.866-.308-1.298-.462l.506.857c.613 1.19-1.182 2.243-1.795 1.048a22.283 22.283 0 0 0-.982-1.706c.618 1.968 1.177 3.945 2.617 5.647.676.803.038 1.96-1.014 1.739l-.315-.104-.725.104a12.71 12.71 0 0 1-3.059-1.061c-.125 1.627-.194 3.22.176 4.985.218 1.044-.943 1.702-1.74 1.011-3.711-3.212-3.511-7.419-5.364-11.655-.308-.703.042-1.556.897-1.564l.46-.017c-.115-.828-.157-1.685-.034-2.601.095-.69.283-1.26.509-1.772l-.66.016a24.068 24.068 0 0 0-.275 2.293c-.06.878-1.101 1.411-1.777.737l-1.562-1.561-.488.387c.721 1.777 1.486 3.599 2.643 5.114.781 1.019-.791 1.918-1.634 1.261-1.075-.841-1.853-1.523-2.452-2.16l-.011.038c.088 1.61.662 3.27 1.473 4.743.564.724 1.106 1.49 1.584 2.359.551.999-.851 2.193-1.635 1.261l-.156-.216-.004.004-.103-.15a17.002 17.002 0 0 1-1.32-1.968 15.902 15.902 0 0 0-.954-1.094c-.305.586-1.064.836-1.625.303l-.767-.64a22.422 22.422 0 0 0 1.637 3.308c.476.586.992 1.269 1.644 2.101.693.89-.159 2.251-1.262 1.635-1.545-.865-2.608-1.469-3.346-2.001.709 1.581 1.424 3.158 2.527 4.527.704.878-.178 2.272-1.262 1.635a17.834 17.834 0 0 1-1.937-1.302l.238.919c.457 1.028-.719 1.852-1.433 1.373l-.506.192c-.715-.042-1.395-.192-2.089-.362l.358.799c.788.253 1.587.478 2.331.844 1.321.645 1.482 1.54 1.482 2.88 0 .549-.474 1.069-1.041 1.04l-.561-.096c.55 1.086 1.145 2.68-.86 2.33-1.308-.229-2.737-1.156-3.847-1.839l-.329-.262-.588-.27c-.482-.579-.358-1.403-.044-2.222a34.944 34.944 0 0 0-1.581-.903c-.51-.275-.637-.945-.372-1.423l.388-.604-.167.092c-1.364.27-2.899-.691-4.299-1.436l-.325.616c.474.121.919.304 1.219.658.589.694.711 1.889 1.485 2.38 1.127.719.084 2.521-1.051 1.797-1.344-.857-1.423-2.172-2.566-2.717-.369 1.477.01 2.771.847 3.866l.31.07.317.113c.536-.063 1.074-.129 1.618-.15.567-.025 1.04.491 1.04 1.04v2.081c0 .803-.879 1.277-1.566.898l-.546-.328c-1.294.628-2.693 1.406-3.969 1.876.33 1.427-1.794 3.092-3.639 4.307 1.192.183 2.377.291 3.54.274.179-.694 1.104-.998 1.714-.482l.165.141.101.175c.979-.15 1.922-.42 2.834-.811.139-.45.259-.858.363-1.124.366-.949 1.572-.87 1.931-.183.503-.387.992-.816 1.457-1.319.981-.92 2.386.487 1.474 1.473a12.81 12.81 0 0 1-3.848 2.838c-.887 1.772-1.791 2.733-3.208 3.208.186 1.019.207 1.881.075 2.642l.898.454c.566.815 1.109 1.364 1.65 1.793.473-.936 1.067-1.723 1.886-1.885 1.869-.374 4.56 3.1 5.669 4.04.813.695-.054 2.014-1.013 1.74-1.95-.558-3.758-.283-5.63-.562-.157.378-.31.765-.481 1.123-.377.795-1.735.612-1.901-.249a22.764 22.764 0 0 0-.616-2.755l-.2-.483-.472-.665c-1.788 1.622-3.653 3.158-5.492 4.722l-.08.075.064.013c.478.274.93.549 1.396.823 1.254-.686 2.291-1.319 2.33-1.547.074-.425.579-.795 1.005-.762 2.012.154 3.545 5.293 3.2 6.903-.148.699-.959.903-1.528.62-1.831-.89-3.538-1.918-5.26-2.946.26 2.23-1.381 2.206-4.514 2.971-1.303.321-1.855-1.685-.553-2.005l.275-.059-.069-.944c-2.076 1.277-4.772 1.256-7.214.965-1.316-.158-1.332-2.238 0-2.08 2.131.258 4.31.412 6.253-.67 1.849-1.028 1.853-3.383 1.503-5.414-1.231.987-2.818 1.731-3.897 2.659-.669.57-1.778.221-1.778-.736v-3.878a10.22 10.22 0 0 1-.436-1.702c-.572.179-1.143.312-1.645.379-.564.074-1.041-.529-1.041-1.041v-3.12c-.071-3.084-.821-6.508-2.205-9.387-.468.69-.896 1.406-1.387 2.08.228.682.415 1.373.47 2.105.043.566-.506 1.041-1.04 1.041h-2.082c-.803 0-1.276-.878-.897-1.565.384-.699.86-1.327 1.319-1.98-.176-.475-.344-.953-.532-1.428-.087.429-.361.82-.93.812-2.87-.038-.394-3.262.037-4.436Z"/>
    <path d="M474.67 634.23c.862-.345 1.755-.191 2.618.063.361.108.734.274 1.114.308-.2-.017-.229-1.773-.296-2.214l.047-.008-.084-.267c-.139-1.16 1.869-1.431 2.043-.274l.045.287c.087.603 1.603 1.989 1.931 2.584.654 1.173-1.143 2.222-1.795 1.048l-.181-.262c-.19.512-.484.941-1.076 1.095-1.315.341-2.575-.849-3.813-.354-1.245.499-1.782-1.515-.553-2.006Zm-28.346-10.298c2.506-1.148 5.094-1.177 7.81-1.182.567 0 1.04.475 1.04 1.041v4.161c0 .798-.717 1.061-1.315.911-.883 1.777-3.823 3.204-5.454 2.068-1.091-.766-.052-2.567 1.051-1.798.523.366 1.544-.158 2.149-.753-1.51-.732-3.046-1.381-4.756-1.469-.567-.029-1.041-.449-1.041-1.04v-1.04l.516-.899Z"/>
  </g>
  <defs>
    <clipPath id="a">
      <path fill="#fff" d="M0 0h1920v724H0z" transform="matrix(-1 0 0 1 1920 0)"/>
    </clipPath>
  </defs>
</svg>
